<svg id="svgQrWrapper" viewBox="0 0 300 300" xmlns="http://www.w3.org/2000/svg"
  xmlns:xlink="http://www.w3.org/1999/xlink" width="300" height="300"
  style="width: 100%; height: 100%; background-color: rgb(255, 255, 255, 0);">
  <svg xmlns="http://www.w3.org/2000/svg" viewBox="0 0 2000 2000" width="300" height="300"
    fill="none">
    <g>
      <defs>
        <style>.cls-chr22{fill:#fceda2}.cls-chr23{fill:#a7b7f9}.cls-chr24{fill:#c1cbff}</style>
      </defs>
      <path
        d="M1561.55 1661.47H438.45c-47.73 0-86.56-38.83-86.56-86.56V451.81c0-47.73 38.83-86.56 86.56-86.56h1123.1c47.73 0 86.56 38.83 86.56 86.56v1123.1c0 47.73-38.83 86.56-86.56 86.56ZM438.45 395.07c-31.29 0-56.74 25.45-56.74 56.74v1123.1c0 31.29 25.45 56.74 56.74 56.74h1123.1c31.29 0 56.74-25.45 56.74-56.74V451.81c0-31.29-25.45-56.74-56.74-56.74H438.45Z"
        style="fill: rgb(155, 171, 234);" />
      <path
        d="M1422.83 161.17c10.25-8.8 25.56-10.1 36.7-3.93 13.92 7.71 16.3 24.29 17.04 29.49 2.86 19.97-7.82 33.86-3.93 36.7 3.99 2.91 15.52-11.51 27.77-18.92 40.92-24.75 92.37 26.69 177.31 32.77 16.45 1.18 42.1 1.12 74.46-7.31-16.22 19.83-39.91 41.75-72.96 52.16-70.53 22.21-142.62-20.95-147.47-10.78-2.52 5.29 14.74 21.71 47.58 41.05 47.5 27.96 135.02 66.38 279.05 67.19-3.62 47.75-19.35 77.1-33.29 95.2-26.05 33.81-55.39 40.66-106.72 90.05a496.81 496.81 0 0 0-38.96 42.07c-128.64-130.25-177.19-212.68-197.16-264.75-12.44-29.84-17.22-35.69-19.22-35.11-7.42 2.18 32.14 90.11-1.98 151.76-17.67 31.92-50.27 48.07-75.44 56.76 20.48-35.95 27.25-66.41 29.76-86.95 10.1-82.43-29.22-148.07 1.11-174.27 13.96-12.06 37.33-11.07 37.14-18.47-.16-6.42-17.7-6.26-31.36-22.83-3.32-4.03-10.7-13.24-10.58-26.33.04-4.65 1.09-16.93 11.14-25.56Z"
        class="cls-chr24" />
      <path
        d="M1579.33 312.39c-32.85-19.34-50.1-35.76-47.58-41.05 4.84-10.16 76.94 33 147.47 10.78 33.05-10.41 56.74-32.33 72.96-52.16-32.36 8.43-58.01 8.49-74.46 7.31-84.94-6.08-136.4-57.52-177.31-32.77-12.25 7.41-23.78 21.83-27.77 18.92-3.89-2.84 6.79-16.73 3.93-36.7-.75-5.2-3.12-21.78-17.04-29.49-4.63-2.56-9.98-3.82-15.39-3.8 11.21 6.67 23.32 16.74 27.46 31.6 6.32 22.66-9.73 42.62-3.53 47.44 6.82 5.3 24.52-20.2 54.51-25.23 20.99-3.52 30.21 5.97 64.1 17.16 59.17 19.53 98.75 12.93 99.42 21.2.57 7.03-27.59 17.43-55.52 21.2-69.65 9.39-117.02-25.33-127.69-11.61-7.57 9.74 8.04 37.86 29.27 61.57 78.6 87.76 187.45 62.85 210.46 113.05 10.74 23.44 4.64 67.33-82.41 157.39 6.2 6.45 12.59 13.01 19.2 19.7a495.27 495.27 0 0 1 38.96-42.07c51.33-49.39 80.67-56.24 106.72-90.05 13.94-18.1 29.67-47.45 33.29-95.2-144.03-.8-231.55-39.22-279.05-67.19Z"
        class="cls-chr23" />
      <path
        d="M577.17 161.17c-10.25-8.8-25.56-10.1-36.7-3.93-13.92 7.71-16.3 24.29-17.04 29.49-2.86 19.97 7.82 33.86 3.93 36.7-3.99 2.91-15.52-11.51-27.77-18.92-40.92-24.75-92.37 26.69-177.31 32.77-16.45 1.18-42.1 1.12-74.46-7.31 16.22 19.83 39.91 41.75 72.96 52.16 70.53 22.21 142.62-20.95 147.47-10.78 2.52 5.29-14.74 21.71-47.58 41.05-47.5 27.96-135.02 66.38-279.05 67.19 3.62 47.75 19.35 77.1 33.29 95.2 26.05 33.81 55.39 40.66 106.72 90.05a496.81 496.81 0 0 1 38.96 42.07c128.64-130.25 177.19-212.68 197.16-264.75 12.44-29.84 17.22-35.69 19.22-35.11 7.42 2.18-32.14 90.11 1.98 151.76 17.67 31.92 50.27 48.07 75.44 56.76-20.48-35.95-27.25-66.41-29.76-86.95-10.1-82.43 29.22-148.07-1.11-174.27-13.96-12.06-37.33-11.07-37.14-18.47.16-6.42 17.7-6.26 31.36-22.83 3.32-4.03 10.7-13.24 10.58-26.33-.04-4.65-1.09-16.93-11.14-25.56Z"
        class="cls-chr24" />
      <path
        d="M420.67 312.39c32.85-19.34 50.1-35.76 47.58-41.05-4.84-10.16-76.94 33-147.47 10.78-33.05-10.41-56.74-32.33-72.96-52.16 32.36 8.43 58.01 8.49 74.46 7.31 84.94-6.08 136.4-57.52 177.31-32.77 12.25 7.41 23.78 21.83 27.77 18.92 3.89-2.84-6.79-16.73-3.93-36.7.75-5.2 3.12-21.78 17.04-29.49 4.63-2.56 9.98-3.82 15.39-3.8-11.21 6.67-23.32 16.74-27.46 31.6-6.32 22.66 9.73 42.62 3.53 47.44-6.82 5.3-24.52-20.2-54.51-25.23-20.99-3.52-30.21 5.97-64.1 17.16-59.17 19.53-98.75 12.93-99.42 21.2-.57 7.03 27.59 17.43 55.52 21.2 69.65 9.39 117.02-25.33 127.69-11.61 7.57 9.74-8.04 37.86-29.27 61.57-78.6 87.76-187.45 62.85-210.46 113.05-10.74 23.44-4.64 67.33 82.41 157.39-6.2 6.45-12.59 13.01-19.2 19.7a495.27 495.27 0 0 0-38.96-42.07c-51.33-49.39-80.67-56.24-106.72-90.05-13.94-18.1-29.67-47.45-33.29-95.2 144.03-.8 231.55-39.22 279.05-67.19ZM1689.76 931.87l8.05 16.31 18 2.61-13.03 12.7 3.08 17.93-16.1-8.46-16.11 8.46 3.08-17.93-13.03-12.7 18.01-2.61 8.05-16.31zM1765.44 1401.9l16.25 32.93 36.34 5.28-26.3 25.63 6.21 36.19-32.5-17.08-32.51 17.08 6.21-36.19-26.3-25.63 36.34-5.28 16.26-32.93zM287.1 1085.3l16.25 32.93 36.34 5.28-26.3 25.64 6.21 36.19-32.5-17.09-32.51 17.09 6.21-36.19-26.29-25.64 36.34-5.28 16.25-32.93zM203.47 931.63l8.13 16.47 18.17 2.64-13.15 12.82 3.11 18.09-16.26-8.54-16.25 8.54 3.11-18.09-13.15-12.82 18.17-2.64 8.12-16.47zM234.51 606.9l8.12 16.46L260.8 626l-13.15 12.82 3.11 18.09-16.25-8.54-16.26 8.54 3.11-18.09L208.21 626l18.17-2.64 8.13-16.46zM975.62 265.51l8.13 16.46 18.17 2.64-13.15 12.82 3.1 18.1-16.25-8.55-16.25 8.55 3.1-18.1-13.14-12.82 18.17-2.64 8.12-16.46zM229.77 1460.7l13.4 27.15 29.96 4.35-21.68 21.13 5.12 29.84-26.8-14.09-26.8 14.09 5.12-29.84-21.68-21.13 29.96-4.35 13.4-27.15zM413.2 1729.74l10.87 22.04 24.33 3.53-17.6 17.16 4.15 24.22-21.75-11.44-21.76 11.44 4.16-24.22-17.6-17.16 24.32-3.53 10.88-22.04zM870.31 1689.57l16.76 33.96 37.47 5.44-27.11 26.43 6.4 37.32-33.52-17.62-33.51 17.62 6.4-37.32-27.11-26.43 37.47-5.44 16.75-33.96zM1204.59 1796.69l8.38 16.98 18.74 2.72-13.56 13.21 3.2 18.66-16.76-8.81-16.75 8.81 3.2-18.66-13.56-13.21 18.73-2.72 8.38-16.98zM1586.55 1711.19l8.38 16.98 18.73 2.72-13.55 13.22 3.2 18.66-16.76-8.81-16.76 8.81 3.2-18.66-13.55-13.22 18.73-2.72 8.38-16.98zM1808.85 1292.92l8.38 16.98 18.74 2.72-13.56 13.21 3.2 18.66-16.76-8.81-16.75 8.81 3.2-18.66-13.56-13.21 18.74-2.72 8.37-16.98zM1734.4 645.06l11.23 22.76 25.12 3.65-18.18 17.71 4.29 25.01-22.46-11.81-22.46 11.81 4.29-25.01-18.17-17.71 25.11-3.65 11.23-22.76zM1321.66 256.96l13.03 26.4 29.13 4.23-21.08 20.55 4.97 29.01-26.05-13.7-26.05 13.7 4.97-29.01-21.07-20.55 29.12-4.23 13.03-26.4z"
        class="cls-chr23" />
      <path
        d="m666.95 285.44 9.59 19.44 21.44 3.11-15.51 15.13 3.66 21.35-19.18-10.08-19.18 10.08 3.66-21.35-15.51-15.13 21.44-3.11 9.59-19.44zM1119.44 297.06l9.59 19.43 21.44 3.11-15.51 15.13 3.66 21.35-19.18-10.08-19.18 10.08 3.66-21.35-15.51-15.13 21.44-3.11 9.59-19.43zM1262.74 162.32l9.59 19.43 21.44 3.11-15.52 15.13 3.67 21.35-19.18-10.08-19.18 10.08 3.66-21.35-15.51-15.13 21.44-3.11 9.59-19.43zM1754.09 1126.49l13.43 27.22 30.04 4.36-21.73 21.18 5.13 29.92-26.87-14.13-26.86 14.13 5.13-29.92-21.73-21.18 30.03-4.36 13.43-27.22zM1071.42 1714.07l8.81 17.86 19.71 2.86-14.26 13.9 3.36 19.63-17.62-9.27-17.63 9.27 3.36-19.63-14.26-13.9 19.71-2.86 8.82-17.86zM287.1 759.55l9.59 19.43 21.44 3.12-15.52 15.12 3.67 21.36-19.18-10.09-19.18 10.09 3.66-21.36-15.52-15.12 21.45-3.12 9.59-19.43zM1808.85 797.75l15.31 31.02 34.23 4.97-24.77 24.14 5.85 34.09-30.62-16.1-30.61 16.1 5.85-34.09-24.77-24.14 34.23-4.97 15.3-31.02zM604.42 1729.74l15 30.4 33.55 4.88-24.27 23.66 5.73 33.42-30.01-15.78-30.01 15.78 5.73-33.42-24.28-23.66 33.55-4.88 15.01-30.4zM1386.35 1682.25l9.58 19.4 21.41 3.11-15.5 15.11 3.66 21.33-19.15-10.07-19.15 10.07 3.65-21.33-15.49-15.11 21.41-3.11 9.58-19.4zM245.91 1301.31l9.59 19.43 21.44 3.12-15.52 15.12 3.67 21.36-19.18-10.09-19.18 10.09 3.66-21.36-15.52-15.12 21.45-3.12 9.59-19.43z"
        class="cls-chr22" />
      <path
        d="m800.41 151.74 13.02 26.39 29.13 4.23-21.08 20.55 4.98 29.01-26.05-13.7-26.06 13.7 4.98-29.01-21.08-20.55 29.13-4.23 13.03-26.39z"
        class="cls-chr23" />
      <g transform="translate(490, 520)scale(3.5)" fill="none">
        <svg width="300" height="300">
          <style>.background-color{ fill: #fff; }.dot-color{ fill: #c1cbff;
            }.corners-square-color-0-0{ fill: #a7b6f9; }.corners-dot-color-0-0{ fill: #a7b6f9;
            }.corners-square-color-1-0{ fill: #a7b6f9; }.corners-dot-color-1-0{ fill: #a7b6f9;
            }.corners-square-color-0-1{ fill: #a7b6f9; }.corners-dot-color-0-1{ fill: #a7b6f9; }</style>
          <defs />
          <g class="dot-color">
            <path d="M 5 115v 5a 5 5, 0, 0, 0, 5 5h 5v -5a 5 5, 0, 0, 0, -5 -5"
              transform="rotate(90,10,120)" />
            <path d="M 5 145v 5a 5 5, 0, 0, 0, 5 5h 5v -5a 5 5, 0, 0, 0, -5 -5"
              transform="rotate(90,10,150)" />
            <path d="M 5 185v 10h 10a 10 10, 0, 0, 0, -10 -10" transform="rotate(-90,10,190)" />
            <rect x="5" y="195" width="10" height="10" transform="rotate(0,10,200)" />
            <path d="M 15 155v 5a 5 5, 0, 0, 0, 5 5h 5v -5a 5 5, 0, 0, 0, -5 -5"
              transform="rotate(90,20,160)" />
            <rect x="15" y="185" width="10" height="10" transform="rotate(0,20,190)" />
            <path d="M 15 195v 10h 10a 10 10, 0, 0, 0, -10 -10" transform="rotate(90,20,200)" />
            <path d="M 25 95v 10h 10a 10 10, 0, 0, 0, -10 -10" transform="rotate(-90,30,100)" />
            <rect x="25" y="105" width="10" height="10" transform="rotate(0,30,110)" />
            <rect x="25" y="115" width="10" height="10" transform="rotate(0,30,120)" />
            <path d="M 25 135v 10h 10a 10 10, 0, 0, 0, -10 -10" transform="rotate(-90,30,140)" />
            <path d="M 25 145v 10h 10a 10 10, 0, 0, 0, -10 -10" transform="rotate(90,30,150)" />
            <path d="M 25 165v 10h 10a 10 10, 0, 0, 0, -10 -10" transform="rotate(-90,30,170)" />
            <rect x="25" y="175" width="10" height="10" transform="rotate(0,30,180)" />
            <path d="M 35 85v 10h 10a 10 10, 0, 0, 0, -10 -10" transform="rotate(-90,40,90)" />
            <rect x="35" y="95" width="10" height="10" transform="rotate(0,40,100)" />
            <rect x="35" y="105" width="10" height="10" transform="rotate(0,40,110)" />
            <rect x="35" y="115" width="10" height="10" transform="rotate(0,40,120)" />
            <rect x="35" y="165" width="10" height="10" transform="rotate(0,40,170)" />
            <rect x="35" y="175" width="10" height="10" transform="rotate(0,40,180)" />
            <rect x="35" y="185" width="10" height="10" transform="rotate(0,40,190)" />
            <path d="M 35 195v 10h 10a 10 10, 0, 0, 0, -10 -10" transform="rotate(90,40,200)" />
            <path d="M 45 115v 10h 10a 10 10, 0, 0, 0, -10 -10" transform="rotate(90,50,120)" />
            <path d="M 45 155v 5a 5 5, 0, 0, 0, 5 5h 5v -5a 5 5, 0, 0, 0, -5 -5"
              transform="rotate(90,50,160)" />
            <path d="M 45 175v 10h 10a 10 10, 0, 0, 0, -10 -10" transform="rotate(90,50,180)" />
            <path d="M 45 205v 10h 10a 10 10, 0, 0, 0, -10 -10" transform="rotate(-90,50,210)" />
            <path d="M 55 85v 10h 10a 10 10, 0, 0, 0, -10 -10" transform="rotate(-90,60,90)" />
            <path d="M 55 135v 10h 10a 10 10, 0, 0, 0, -10 -10" transform="rotate(-90,60,140)" />
            <rect x="55" y="145" width="10" height="10" transform="rotate(0,60,150)" />
            <path d="M 55 165v 10h 10a 10 10, 0, 0, 0, -10 -10" transform="rotate(-90,60,170)" />
            <rect x="55" y="205" width="10" height="10" transform="rotate(0,60,210)" />
            <rect x="65" y="85" width="10" height="10" transform="rotate(0,70,90)" />
            <path d="M 65 105v 5a 5 5, 0, 0, 0, 5 5h 5v -5a 5 5, 0, 0, 0, -5 -5"
              transform="rotate(90,70,110)" />
            <path d="M 65 125v 10h 10a 10 10, 0, 0, 0, -10 -10" transform="rotate(-90,70,130)" />
            <path d="M 65 145v 10h 10a 10 10, 0, 0, 0, -10 -10" transform="rotate(90,70,150)" />
            <rect x="65" y="165" width="10" height="10" transform="rotate(0,70,170)" />
            <path d="M 65 185v 10h 10a 10 10, 0, 0, 0, -10 -10" transform="rotate(-90,70,190)" />
            <rect x="65" y="205" width="10" height="10" transform="rotate(0,70,210)" />
            <path d="M 75 85v 10h 10a 10 10, 0, 0, 0, -10 -10" transform="rotate(90,80,90)" />
            <path d="M 75 115v 10h 10a 10 10, 0, 0, 0, -10 -10" transform="rotate(-90,80,120)" />
            <rect x="75" y="125" width="10" height="10" transform="rotate(0,80,130)" />
            <path d="M 75 135v 10h 10a 10 10, 0, 0, 0, -10 -10" transform="rotate(90,80,140)" />
            <path d="M 75 155v 10h 10a 10 10, 0, 0, 0, -10 -10" transform="rotate(-90,80,160)" />
            <path d="M 75 165v 10h 10a 10 10, 0, 0, 0, -10 -10" transform="rotate(90,80,170)" />
            <rect x="75" y="185" width="10" height="10" transform="rotate(0,80,190)" />
            <rect x="75" y="205" width="10" height="10" transform="rotate(0,80,210)" />
            <path d="M 85 15v 10h 10a 10 10, 0, 0, 0, -10 -10" transform="rotate(-90,90,20)" />
            <rect x="85" y="25" width="10" height="10" transform="rotate(0,90,30)" />
            <path d="M 85 65v 5a 5 5, 0, 0, 0, 5 5h 5v -5a 5 5, 0, 0, 0, -5 -5"
              transform="rotate(90,90,70)" />
            <path d="M 85 95v 10h 10a 10 10, 0, 0, 0, -10 -10" transform="rotate(-90,90,100)" />
            <rect x="85" y="115" width="10" height="10" transform="rotate(0,90,120)" />
            <path d="M 85 125v 10h 10a 10 10, 0, 0, 0, -10 -10" transform="rotate(90,90,130)" />
            <path d="M 85 145v 10h 10a 10 10, 0, 0, 0, -10 -10" transform="rotate(-90,90,150)" />
            <rect x="85" y="155" width="10" height="10" transform="rotate(0,90,160)" />
            <path d="M 85 175v 10h 10a 10 10, 0, 0, 0, -10 -10" transform="rotate(-90,90,180)" />
            <rect x="85" y="185" width="10" height="10" transform="rotate(0,90,190)" />
            <rect x="85" y="195" width="10" height="10" transform="rotate(0,90,200)" />
            <path d="M 85 205v 10h 10a 10 10, 0, 0, 0, -10 -10" transform="rotate(90,90,210)" />
            <path d="M 85 225v 10h 10a 10 10, 0, 0, 0, -10 -10" transform="rotate(-90,90,230)" />
            <rect x="85" y="235" width="10" height="10" transform="rotate(0,90,240)" />
            <path d="M 85 255v 10h 10a 10 10, 0, 0, 0, -10 -10" transform="rotate(-90,90,260)" />
            <path d="M 95 5v 10h 10a 10 10, 0, 0, 0, -10 -10" transform="rotate(-90,100,10)" />
            <rect x="95" y="15" width="10" height="10" transform="rotate(0,100,20)" />
            <rect x="95" y="25" width="10" height="10" transform="rotate(0,100,30)" />
            <rect x="95" y="35" width="10" height="10" transform="rotate(0,100,40)" />
            <rect x="95" y="45" width="10" height="10" transform="rotate(0,100,50)" />
            <path d="M 95 55v 10h 10a 10 10, 0, 0, 0, -10 -10" transform="rotate(90,100,60)" />
            <path d="M 95 75v 10h 10a 10 10, 0, 0, 0, -10 -10" transform="rotate(-90,100,80)" />
            <rect x="95" y="85" width="10" height="10" transform="rotate(0,100,90)" />
            <rect x="95" y="95" width="10" height="10" transform="rotate(0,100,100)" />
            <rect x="95" y="115" width="10" height="10" transform="rotate(0,100,120)" />
            <path d="M 95 155v 10h 10a 10 10, 0, 0, 0, -10 -10" transform="rotate(90,100,160)" />
            <rect x="95" y="185" width="10" height="10" transform="rotate(0,100,190)" />
            <path d="M 95 215v 10h 10a 10 10, 0, 0, 0, -10 -10" transform="rotate(-90,100,220)" />
            <rect x="95" y="225" width="10" height="10" transform="rotate(0,100,230)" />
            <rect x="95" y="235" width="10" height="10" transform="rotate(0,100,240)" />
            <rect x="95" y="255" width="10" height="10" transform="rotate(0,100,260)" />
            <rect x="95" y="265" width="10" height="10" transform="rotate(0,100,270)" />
            <rect x="95" y="275" width="10" height="10" transform="rotate(0,100,280)" />
            <rect x="95" y="285" width="10" height="10" transform="rotate(0,100,290)" />
            <path d="M 105 45v 10h 10a 10 10, 0, 0, 0, -10 -10" transform="rotate(90,110,50)" />
            <path d="M 105 65v 10h 10a 10 10, 0, 0, 0, -10 -10" transform="rotate(-90,110,70)" />
            <path d="M 105 75v 10h 10a 10 10, 0, 0, 0, -10 -10" transform="rotate(90,110,80)" />
            <path d="M 105 95v 10h 10a 10 10, 0, 0, 0, -10 -10" transform="rotate(90,110,100)" />
            <path d="M 105 115v 10h 10a 10 10, 0, 0, 0, -10 -10" transform="rotate(90,110,120)" />
            <path d="M 105 165v 10h 10a 10 10, 0, 0, 0, -10 -10" transform="rotate(-90,110,170)" />
            <rect x="105" y="175" width="10" height="10" transform="rotate(0,110,180)" />
            <rect x="105" y="185" width="10" height="10" transform="rotate(0,110,190)" />
            <rect x="105" y="195" width="10" height="10" transform="rotate(0,110,200)" />
            <rect x="105" y="205" width="10" height="10" transform="rotate(0,110,210)" />
            <path d="M 105 215v 10h 10a 10 10, 0, 0, 0, -10 -10" transform="rotate(90,110,220)" />
            <rect x="105" y="235" width="10" height="10" transform="rotate(0,110,240)" />
            <rect x="105" y="245" width="10" height="10" transform="rotate(0,110,250)" />
            <path d="M 105 285v 10h 10a 10 10, 0, 0, 0, -10 -10" transform="rotate(90,110,290)" />
            <path d="M 115 15v 10h 10a 10 10, 0, 0, 0, -10 -10" transform="rotate(-90,120,20)" />
            <path d="M 115 25v 10h 10a 10 10, 0, 0, 0, -10 -10" transform="rotate(90,120,30)" />
            <path d="M 115 105v 10h 10a 10 10, 0, 0, 0, -10 -10" transform="rotate(-90,120,110)" />
            <path d="M 115 125v 10h 10a 10 10, 0, 0, 0, -10 -10" transform="rotate(-90,120,130)" />
            <rect x="115" y="135" width="10" height="10" transform="rotate(0,120,140)" />
            <path d="M 115 155v 10h 10a 10 10, 0, 0, 0, -10 -10" transform="rotate(-90,120,160)" />
            <path d="M 115 165v 10h 10a 10 10, 0, 0, 0, -10 -10" transform="rotate(90,120,170)" />
            <rect x="115" y="185" width="10" height="10" transform="rotate(0,120,190)" />
            <rect x="115" y="195" width="10" height="10" transform="rotate(0,120,200)" />
            <path d="M 115 225v 10h 10a 10 10, 0, 0, 0, -10 -10" transform="rotate(-90,120,230)" />
            <rect x="115" y="245" width="10" height="10" transform="rotate(0,120,250)" />
            <rect x="115" y="255" width="10" height="10" transform="rotate(0,120,260)" />
            <path d="M 125 35v 5a 5 5, 0, 0, 0, 5 5h 5v -5a 5 5, 0, 0, 0, -5 -5"
              transform="rotate(90,130,40)" />
            <path d="M 125 55v 10h 10a 10 10, 0, 0, 0, -10 -10" transform="rotate(-90,130,60)" />
            <rect x="125" y="65" width="10" height="10" transform="rotate(0,130,70)" />
            <rect x="125" y="75" width="10" height="10" transform="rotate(0,130,80)" />
            <rect x="125" y="85" width="10" height="10" transform="rotate(0,130,90)" />
            <rect x="125" y="95" width="10" height="10" transform="rotate(0,130,100)" />
            <rect x="125" y="105" width="10" height="10" transform="rotate(0,130,110)" />
            <path d="M 125 115v 10h 10a 10 10, 0, 0, 0, -10 -10" transform="rotate(90,130,120)" />
            <rect x="125" y="135" width="10" height="10" transform="rotate(0,130,140)" />
            <rect x="125" y="145" width="10" height="10" transform="rotate(0,130,150)" />
            <rect x="125" y="195" width="10" height="10" transform="rotate(0,130,200)" />
            <rect x="125" y="205" width="10" height="10" transform="rotate(0,130,210)" />
            <rect x="125" y="215" width="10" height="10" transform="rotate(0,130,220)" />
            <rect x="125" y="225" width="10" height="10" transform="rotate(0,130,230)" />
            <rect x="125" y="255" width="10" height="10" transform="rotate(0,130,260)" />
            <rect x="125" y="265" width="10" height="10" transform="rotate(0,130,270)" />
            <path d="M 125 275v 10h 10a 10 10, 0, 0, 0, -10 -10" transform="rotate(90,130,280)" />
            <path d="M 135 25v 5a 5 5, 0, 0, 0, 5 5h 5v -5a 5 5, 0, 0, 0, -5 -5"
              transform="rotate(90,140,30)" />
            <path d="M 135 45v 10h 10a 10 10, 0, 0, 0, -10 -10" transform="rotate(-90,140,50)" />
            <rect x="135" y="55" width="10" height="10" transform="rotate(0,140,60)" />
            <path d="M 135 125v 10h 10a 10 10, 0, 0, 0, -10 -10" transform="rotate(-90,140,130)" />
            <rect x="135" y="135" width="10" height="10" transform="rotate(0,140,140)" />
            <rect x="135" y="145" width="10" height="10" transform="rotate(0,140,150)" />
            <path d="M 135 165v 10h 10a 10 10, 0, 0, 0, -10 -10" transform="rotate(-90,140,170)" />
            <rect x="135" y="175" width="10" height="10" transform="rotate(0,140,180)" />
            <rect x="135" y="185" width="10" height="10" transform="rotate(0,140,190)" />
            <rect x="135" y="195" width="10" height="10" transform="rotate(0,140,200)" />
            <path d="M 135 205v 10h 10a 10 10, 0, 0, 0, -10 -10" transform="rotate(90,140,210)" />
            <path d="M 135 225v 10h 10a 10 10, 0, 0, 0, -10 -10" transform="rotate(90,140,230)" />
            <rect x="135" y="255" width="10" height="10" transform="rotate(0,140,260)" />
            <path d="M 135 285v 10h 10a 10 10, 0, 0, 0, -10 -10" transform="rotate(-90,140,290)" />
            <path d="M 145 15v 10h 10a 10 10, 0, 0, 0, -10 -10" transform="rotate(-90,150,20)" />
            <rect x="145" y="45" width="10" height="10" transform="rotate(0,150,50)" />
            <rect x="145" y="55" width="10" height="10" transform="rotate(0,150,60)" />
            <path d="M 145 65v 10h 10a 10 10, 0, 0, 0, -10 -10" transform="rotate(90,150,70)" />
            <rect x="145" y="125" width="10" height="10" transform="rotate(0,150,130)" />
            <rect x="145" y="135" width="10" height="10" transform="rotate(0,150,140)" />
            <rect x="145" y="145" width="10" height="10" transform="rotate(0,150,150)" />
            <rect x="145" y="155" width="10" height="10" transform="rotate(0,150,160)" />
            <path d="M 145 165v 10h 10a 10 10, 0, 0, 0, -10 -10" transform="rotate(90,150,170)" />
            <path d="M 145 195v 10h 10a 10 10, 0, 0, 0, -10 -10" transform="rotate(90,150,200)" />
            <path d="M 145 215v 10h 10a 10 10, 0, 0, 0, -10 -10" transform="rotate(-90,150,220)" />
            <rect x="145" y="255" width="10" height="10" transform="rotate(0,150,260)" />
            <rect x="145" y="265" width="10" height="10" transform="rotate(0,150,270)" />
            <rect x="145" y="275" width="10" height="10" transform="rotate(0,150,280)" />
            <path d="M 145 285v 10h 10a 10 10, 0, 0, 0, -10 -10" transform="rotate(90,150,290)" />
            <path d="M 155 5v 10h 10a 10 10, 0, 0, 0, -10 -10" transform="rotate(-90,160,10)" />
            <path d="M 155 15v 10h 10a 10 10, 0, 0, 0, -10 -10" transform="rotate(90,160,20)" />
            <path d="M 155 35v 5a 5 5, 0, 0, 0, 5 5h 5v -5a 5 5, 0, 0, 0, -5 -5"
              transform="rotate(90,160,40)" />
            <path d="M 155 75v 10h 10a 10 10, 0, 0, 0, -10 -10" transform="rotate(-90,160,80)" />
            <path d="M 155 85v 10h 10a 10 10, 0, 0, 0, -10 -10" transform="rotate(90,160,90)" />
            <path d="M 155 105v 10h 10a 10 10, 0, 0, 0, -10 -10" transform="rotate(-90,160,110)" />
            <rect x="155" y="145" width="10" height="10" transform="rotate(0,160,150)" />
            <path d="M 155 155v 10h 10a 10 10, 0, 0, 0, -10 -10" transform="rotate(90,160,160)" />
            <path d="M 155 175v 10h 10a 10 10, 0, 0, 0, -10 -10" transform="rotate(-90,160,180)" />
            <path d="M 155 205v 10h 10a 10 10, 0, 0, 0, -10 -10" transform="rotate(-90,160,210)" />
            <path d="M 155 215v 10h 10a 10 10, 0, 0, 0, -10 -10" transform="rotate(90,160,220)" />
            <path d="M 155 255v 10h 10a 10 10, 0, 0, 0, -10 -10" transform="rotate(90,160,260)" />
            <path d="M 155 275v 10h 10a 10 10, 0, 0, 0, -10 -10" transform="rotate(90,160,280)" />
            <path d="M 165 5v 10h 10a 10 10, 0, 0, 0, -10 -10" transform="rotate(90,170,10)" />
            <path d="M 165 25v 5a 5 5, 0, 0, 0, 5 5h 5v -5a 5 5, 0, 0, 0, -5 -5"
              transform="rotate(90,170,30)" />
            <path d="M 165 45v 10h 10a 10 10, 0, 0, 0, -10 -10" transform="rotate(-90,170,50)" />
            <path d="M 165 65v 5a 5 5, 0, 0, 0, 5 5h 5v -5a 5 5, 0, 0, 0, -5 -5"
              transform="rotate(90,170,70)" />
            <path d="M 165 95v 10h 10a 10 10, 0, 0, 0, -10 -10" transform="rotate(-90,170,100)" />
            <path d="M 165 105v 10h 10a 10 10, 0, 0, 0, -10 -10" transform="rotate(90,170,110)" />
            <path d="M 165 125v 10h 10a 10 10, 0, 0, 0, -10 -10" transform="rotate(-90,170,130)" />
            <rect x="165" y="135" width="10" height="10" transform="rotate(0,170,140)" />
            <path d="M 165 145v 10h 10a 10 10, 0, 0, 0, -10 -10" transform="rotate(90,170,150)" />
            <path d="M 165 175v 10h 10a 10 10, 0, 0, 0, -10 -10" transform="rotate(90,170,180)" />
            <path d="M 165 225v 5a 5 5, 0, 0, 0, 5 5h 5v -5a 5 5, 0, 0, 0, -5 -5"
              transform="rotate(90,170,230)" />
            <path d="M 175 35v 10h 10a 10 10, 0, 0, 0, -10 -10" transform="rotate(-90,180,40)" />
            <rect x="175" y="45" width="10" height="10" transform="rotate(0,180,50)" />
            <path d="M 175 75v 10h 10a 10 10, 0, 0, 0, -10 -10" transform="rotate(-90,180,80)" />
            <rect x="175" y="125" width="10" height="10" transform="rotate(0,180,130)" />
            <path d="M 175 195v 10h 10a 10 10, 0, 0, 0, -10 -10" transform="rotate(-90,180,200)" />
            <rect x="175" y="205" width="10" height="10" transform="rotate(0,180,210)" />
            <path d="M 175 215v 10h 10a 10 10, 0, 0, 0, -10 -10" transform="rotate(90,180,220)" />
            <path d="M 175 235v 5a 5 5, 0, 0, 0, 5 5h 5v -5a 5 5, 0, 0, 0, -5 -5"
              transform="rotate(90,180,240)" />
            <path d="M 175 255v 5a 5 5, 0, 0, 0, 5 5h 5v -5a 5 5, 0, 0, 0, -5 -5"
              transform="rotate(90,180,260)" />
            <path d="M 175 285v 10h 10a 10 10, 0, 0, 0, -10 -10" transform="rotate(-90,180,290)" />
            <path d="M 185 5v 10h 10a 10 10, 0, 0, 0, -10 -10" transform="rotate(-90,190,10)" />
            <path d="M 185 15v 10h 10a 10 10, 0, 0, 0, -10 -10" transform="rotate(90,190,20)" />
            <rect x="185" y="45" width="10" height="10" transform="rotate(0,190,50)" />
            <rect x="185" y="55" width="10" height="10" transform="rotate(0,190,60)" />
            <rect x="185" y="65" width="10" height="10" transform="rotate(0,190,70)" />
            <rect x="185" y="75" width="10" height="10" transform="rotate(0,190,80)" />
            <path d="M 185 115v 10h 10a 10 10, 0, 0, 0, -10 -10" transform="rotate(-90,190,120)" />
            <rect x="185" y="125" width="10" height="10" transform="rotate(0,190,130)" />
            <path d="M 185 145v 10h 10a 10 10, 0, 0, 0, -10 -10" transform="rotate(-90,190,150)" />
            <path d="M 185 155v 10h 10a 10 10, 0, 0, 0, -10 -10" transform="rotate(90,190,160)" />
            <path d="M 185 185v 10h 10a 10 10, 0, 0, 0, -10 -10" transform="rotate(-90,190,190)" />
            <rect x="185" y="195" width="10" height="10" transform="rotate(0,190,200)" />
            <rect x="185" y="205" width="10" height="10" transform="rotate(0,190,210)" />
            <path d="M 185 245v 5a 5 5, 0, 0, 0, 5 5h 5v -5a 5 5, 0, 0, 0, -5 -5"
              transform="rotate(90,190,250)" />
            <rect x="185" y="285" width="10" height="10" transform="rotate(0,190,290)" />
            <path d="M 195 25v 10h 10a 10 10, 0, 0, 0, -10 -10" transform="rotate(-90,200,30)" />
            <rect x="195" y="35" width="10" height="10" transform="rotate(0,200,40)" />
            <path d="M 195 55v 10h 10a 10 10, 0, 0, 0, -10 -10" transform="rotate(90,200,60)" />
            <rect x="195" y="75" width="10" height="10" transform="rotate(0,200,80)" />
            <rect x="195" y="85" width="10" height="10" transform="rotate(0,200,90)" />
            <rect x="195" y="95" width="10" height="10" transform="rotate(0,200,100)" />
            <path d="M 195 105v 10h 10a 10 10, 0, 0, 0, -10 -10" transform="rotate(90,200,110)" />
            <rect x="195" y="125" width="10" height="10" transform="rotate(0,200,130)" />
            <rect x="195" y="135" width="10" height="10" transform="rotate(0,200,140)" />
            <rect x="195" y="205" width="10" height="10" transform="rotate(0,200,210)" />
            <rect x="195" y="215" width="10" height="10" transform="rotate(0,200,220)" />
            <rect x="195" y="225" width="10" height="10" transform="rotate(0,200,230)" />
            <rect x="195" y="235" width="10" height="10" transform="rotate(0,200,240)" />
            <path d="M 195 255v 10h 10a 10 10, 0, 0, 0, -10 -10" transform="rotate(-90,200,260)" />
            <path d="M 195 285v 10h 10a 10 10, 0, 0, 0, -10 -10" transform="rotate(90,200,290)" />
            <path d="M 205 5v 10h 10a 10 10, 0, 0, 0, -10 -10" transform="rotate(-90,210,10)" />
            <rect x="205" y="15" width="10" height="10" transform="rotate(0,210,20)" />
            <rect x="205" y="25" width="10" height="10" transform="rotate(0,210,30)" />
            <path d="M 205 35v 10h 10a 10 10, 0, 0, 0, -10 -10" transform="rotate(90,210,40)" />
            <path d="M 205 65v 10h 10a 10 10, 0, 0, 0, -10 -10" transform="rotate(-90,210,70)" />
            <path d="M 205 75v 10h 10a 10 10, 0, 0, 0, -10 -10" transform="rotate(90,210,80)" />
            <rect x="205" y="95" width="10" height="10" transform="rotate(0,210,100)" />
            <rect x="205" y="125" width="10" height="10" transform="rotate(0,210,130)" />
            <path d="M 205 135v 10h 10a 10 10, 0, 0, 0, -10 -10" transform="rotate(90,210,140)" />
            <path d="M 205 155v 10h 10a 10 10, 0, 0, 0, -10 -10" transform="rotate(-90,210,160)" />
            <rect x="205" y="165" width="10" height="10" transform="rotate(0,210,170)" />
            <path d="M 205 185v 10h 10a 10 10, 0, 0, 0, -10 -10" transform="rotate(-90,210,190)" />
            <rect x="205" y="195" width="10" height="10" transform="rotate(0,210,200)" />
            <rect x="205" y="205" width="10" height="10" transform="rotate(0,210,210)" />
            <rect x="205" y="215" width="10" height="10" transform="rotate(0,210,220)" />
            <rect x="205" y="225" width="10" height="10" transform="rotate(0,210,230)" />
            <rect x="205" y="235" width="10" height="10" transform="rotate(0,210,240)" />
            <rect x="205" y="245" width="10" height="10" transform="rotate(0,210,250)" />
            <rect x="205" y="255" width="10" height="10" transform="rotate(0,210,260)" />
            <rect x="205" y="265" width="10" height="10" transform="rotate(0,210,270)" />
            <path d="M 205 275v 10h 10a 10 10, 0, 0, 0, -10 -10" transform="rotate(90,210,280)" />
            <path d="M 215 85v 10h 10a 10 10, 0, 0, 0, -10 -10" transform="rotate(-90,220,90)" />
            <rect x="215" y="95" width="10" height="10" transform="rotate(0,220,100)" />
            <path d="M 215 105v 10h 10a 10 10, 0, 0, 0, -10 -10" transform="rotate(90,220,110)" />
            <rect x="215" y="155" width="10" height="10" transform="rotate(0,220,160)" />
            <path d="M 215 165v 10h 10a 10 10, 0, 0, 0, -10 -10" transform="rotate(90,220,170)" />
            <rect x="215" y="205" width="10" height="10" transform="rotate(0,220,210)" />
            <rect x="215" y="245" width="10" height="10" transform="rotate(0,220,250)" />
            <rect x="215" y="255" width="10" height="10" transform="rotate(0,220,260)" />
            <path d="M 215 285v 10h 10a 10 10, 0, 0, 0, -10 -10" transform="rotate(-90,220,290)" />
            <path d="M 225 95v 10h 10a 10 10, 0, 0, 0, -10 -10" transform="rotate(90,230,100)" />
            <path d="M 225 115v 5a 5 5, 0, 0, 0, 5 5h 5v -5a 5 5, 0, 0, 0, -5 -5"
              transform="rotate(90,230,120)" />
            <path d="M 225 135v 5a 5 5, 0, 0, 0, 5 5h 5v -5a 5 5, 0, 0, 0, -5 -5"
              transform="rotate(90,230,140)" />
            <rect x="225" y="155" width="10" height="10" transform="rotate(0,230,160)" />
            <path d="M 225 175v 10h 10a 10 10, 0, 0, 0, -10 -10" transform="rotate(-90,230,180)" />
            <rect x="225" y="185" width="10" height="10" transform="rotate(0,230,190)" />
            <rect x="225" y="205" width="10" height="10" transform="rotate(0,230,210)" />
            <path d="M 225 225v 5a 5 5, 0, 0, 0, 5 5h 5v -5a 5 5, 0, 0, 0, -5 -5"
              transform="rotate(90,230,230)" />
            <rect x="225" y="245" width="10" height="10" transform="rotate(0,230,250)" />
            <rect x="225" y="255" width="10" height="10" transform="rotate(0,230,260)" />
            <path d="M 225 265v 10h 10a 10 10, 0, 0, 0, -10 -10" transform="rotate(90,230,270)" />
            <rect x="225" y="285" width="10" height="10" transform="rotate(0,230,290)" />
            <path d="M 235 105v 10h 10a 10 10, 0, 0, 0, -10 -10" transform="rotate(-90,240,110)" />
            <path d="M 235 125v 10h 10a 10 10, 0, 0, 0, -10 -10" transform="rotate(-90,240,130)" />
            <path d="M 235 145v 10h 10a 10 10, 0, 0, 0, -10 -10" transform="rotate(-90,240,150)" />
            <rect x="235" y="155" width="10" height="10" transform="rotate(0,240,160)" />
            <rect x="235" y="185" width="10" height="10" transform="rotate(0,240,190)" />
            <rect x="235" y="195" width="10" height="10" transform="rotate(0,240,200)" />
            <rect x="235" y="205" width="10" height="10" transform="rotate(0,240,210)" />
            <rect x="235" y="245" width="10" height="10" transform="rotate(0,240,250)" />
            <path d="M 235 255v 10h 10a 10 10, 0, 0, 0, -10 -10" transform="rotate(90,240,260)" />
            <path d="M 235 275v 10h 10a 10 10, 0, 0, 0, -10 -10" transform="rotate(-90,240,280)" />
            <path d="M 235 285v 10h 10a 10 10, 0, 0, 0, -10 -10" transform="rotate(90,240,290)" />
            <path d="M 245 105v 10h 10a 10 10, 0, 0, 0, -10 -10" transform="rotate(90,250,110)" />
            <path d="M 245 125v 10h 10a 10 10, 0, 0, 0, -10 -10" transform="rotate(90,250,130)" />
            <rect x="245" y="155" width="10" height="10" transform="rotate(0,250,160)" />
            <rect x="245" y="165" width="10" height="10" transform="rotate(0,250,170)" />
            <rect x="245" y="175" width="10" height="10" transform="rotate(0,250,180)" />
            <rect x="245" y="185" width="10" height="10" transform="rotate(0,250,190)" />
            <rect x="245" y="195" width="10" height="10" transform="rotate(0,250,200)" />
            <rect x="245" y="205" width="10" height="10" transform="rotate(0,250,210)" />
            <rect x="245" y="215" width="10" height="10" transform="rotate(0,250,220)" />
            <rect x="245" y="225" width="10" height="10" transform="rotate(0,250,230)" />
            <rect x="245" y="235" width="10" height="10" transform="rotate(0,250,240)" />
            <rect x="245" y="245" width="10" height="10" transform="rotate(0,250,250)" />
            <path d="M 255 115v 5a 5 5, 0, 0, 0, 5 5h 5v -5a 5 5, 0, 0, 0, -5 -5"
              transform="rotate(90,260,120)" />
            <path d="M 255 145v 5a 5 5, 0, 0, 0, 5 5h 5v -5a 5 5, 0, 0, 0, -5 -5"
              transform="rotate(90,260,150)" />
            <rect x="255" y="165" width="10" height="10" transform="rotate(0,260,170)" />
            <rect x="255" y="175" width="10" height="10" transform="rotate(0,260,180)" />
            <rect x="255" y="185" width="10" height="10" transform="rotate(0,260,190)" />
            <rect x="255" y="195" width="10" height="10" transform="rotate(0,260,200)" />
            <path d="M 255 205v 10h 10a 10 10, 0, 0, 0, -10 -10" transform="rotate(90,260,210)" />
            <rect x="255" y="235" width="10" height="10" transform="rotate(0,260,240)" />
            <rect x="255" y="245" width="10" height="10" transform="rotate(0,260,250)" />
            <rect x="255" y="255" width="10" height="10" transform="rotate(0,260,260)" />
            <rect x="255" y="265" width="10" height="10" transform="rotate(0,260,270)" />
            <rect x="255" y="275" width="10" height="10" transform="rotate(0,260,280)" />
            <path d="M 265 85v 10h 10a 10 10, 0, 0, 0, -10 -10" transform="rotate(-90,270,90)" />
            <path d="M 265 105v 10h 10a 10 10, 0, 0, 0, -10 -10" transform="rotate(-90,270,110)" />
            <rect x="265" y="165" width="10" height="10" transform="rotate(0,270,170)" />
            <path d="M 265 215v 5a 5 5, 0, 0, 0, 5 5h 5v -5a 5 5, 0, 0, 0, -5 -5"
              transform="rotate(90,270,220)" />
            <path d="M 265 245v 10h 10a 10 10, 0, 0, 0, -10 -10" transform="rotate(90,270,250)" />
            <rect x="265" y="275" width="10" height="10" transform="rotate(0,270,280)" />
            <path d="M 265 285v 10h 10a 10 10, 0, 0, 0, -10 -10" transform="rotate(90,270,290)" />
            <path d="M 275 85v 10h 10a 10 10, 0, 0, 0, -10 -10" transform="rotate(90,280,90)" />
            <path d="M 275 105v 10h 10a 10 10, 0, 0, 0, -10 -10" transform="rotate(90,280,110)" />
            <path d="M 275 145v 10h 10a 10 10, 0, 0, 0, -10 -10" transform="rotate(-90,280,150)" />
            <rect x="275" y="155" width="10" height="10" transform="rotate(0,280,160)" />
            <rect x="275" y="165" width="10" height="10" transform="rotate(0,280,170)" />
            <path d="M 275 195v 5a 5 5, 0, 0, 0, 5 5h 5v -5a 5 5, 0, 0, 0, -5 -5"
              transform="rotate(90,280,200)" />
            <path d="M 275 225v 10h 10a 10 10, 0, 0, 0, -10 -10" transform="rotate(-90,280,230)" />
            <path d="M 275 255v 5a 5 5, 0, 0, 0, 5 5h 5v -5a 5 5, 0, 0, 0, -5 -5"
              transform="rotate(90,280,260)" />
            <path d="M 285 135v 5a 5 5, 0, 0, 0, 5 5h 5v -5a 5 5, 0, 0, 0, -5 -5"
              transform="rotate(90,290,140)" />
            <path d="M 285 165v 10h 10a 10 10, 0, 0, 0, -10 -10" transform="rotate(90,290,170)" />
            <path d="M 285 205v 5a 5 5, 0, 0, 0, 5 5h 5v -5a 5 5, 0, 0, 0, -5 -5"
              transform="rotate(90,290,210)" />
            <rect x="285" y="225" width="10" height="10" transform="rotate(0,290,230)" />
            <rect x="285" y="235" width="10" height="10" transform="rotate(0,290,240)" />
            <path d="M 285 245v 10h 10a 10 10, 0, 0, 0, -10 -10" transform="rotate(90,290,250)" />
            <path d="M 285 285v 5a 5 5, 0, 0, 0, 5 5h 5v -5a 5 5, 0, 0, 0, -5 -5"
              transform="rotate(90,290,290)" />
          </g>
          <g class="corners-square-color-0-0">
            <path clip-rule="evenodd"
              d="M 5 30v 20a 25 25, 0, 0, 0, 25 25h 20a 25 25, 0, 0, 0, 25 -25v -20a 25 25, 0, 0, 0, -25 -25h -20a 25 25, 0, 0, 0, -25 25M 30 15h 20a 15 15, 0, 0, 1, 15 15v 20a 15 15, 0, 0, 1, -15 15h -20a 15 15, 0, 0, 1, -15 -15v -20a 15 15, 0, 0, 1, 15 -15"
              transform="rotate(0,40,40)" />
          </g>
          <g class="corners-dot-color-0-0">
            <circle cx="40" cy="40" r="15" transform="rotate(0,40,40)" />
          </g>
          <g class="corners-square-color-1-0">
            <path clip-rule="evenodd"
              d="M 225 30v 20a 25 25, 0, 0, 0, 25 25h 20a 25 25, 0, 0, 0, 25 -25v -20a 25 25, 0, 0, 0, -25 -25h -20a 25 25, 0, 0, 0, -25 25M 250 15h 20a 15 15, 0, 0, 1, 15 15v 20a 15 15, 0, 0, 1, -15 15h -20a 15 15, 0, 0, 1, -15 -15v -20a 15 15, 0, 0, 1, 15 -15"
              transform="rotate(90,260,40)" />
          </g>
          <g class="corners-dot-color-1-0">
            <circle cx="260" cy="40" r="15" transform="rotate(90,260,40)" />
          </g>
          <g class="corners-square-color-0-1">
            <path clip-rule="evenodd"
              d="M 5 250v 20a 25 25, 0, 0, 0, 25 25h 20a 25 25, 0, 0, 0, 25 -25v -20a 25 25, 0, 0, 0, -25 -25h -20a 25 25, 0, 0, 0, -25 25M 30 235h 20a 15 15, 0, 0, 1, 15 15v 20a 15 15, 0, 0, 1, -15 15h -20a 15 15, 0, 0, 1, -15 -15v -20a 15 15, 0, 0, 1, 15 -15"
              transform="rotate(-90,40,260)" />
          </g>
          <g class="corners-dot-color-0-1">
            <circle cx="40" cy="260" r="15" transform="rotate(-90,40,260)" />
          </g>
        </svg>
      </g>
    </g>
  </svg>
</svg>