<svg id="svgQrWrapper" viewBox="0 0 300 300" xmlns="http://www.w3.org/2000/svg"
  xmlns:xlink="http://www.w3.org/1999/xlink" width="300" height="300"
  style="width: 100%; height: 100%; background-color: rgb(255, 255, 255, 0);">
  <svg xmlns="http://www.w3.org/2000/svg" viewBox="0 0 1500 1500" width="300" height="300"
    fill="none">
    <g>
      <defs>
        <style>
          .cls-5wed1{fill:#6d6875}.cls-5wed2{fill:#ffcdb2}.cls-5wed3{fill:#ffb4a2}.cls-5wed4{fill:#e5989b}</style>
      </defs>
      <path
        d="M355.92 376.93c2.82.07 5.96.14 9.38.21.07-3.26.13-6.53.2-9.79l-9.58 9.58ZM1245.9 367.35c.02 6.24.07 12.48.1 18.72 6.2 0 12.41 0 18.61-.01l-18.7-18.7ZM370.51 1276.05c-.08-4.92-.17-9.84-.26-14.75-4.78.05-9.56.1-14.34.16l14.6 14.6ZM1272.9 488.89h-16.54c-5.42 0-9.8 4.42-9.75 9.84 1.4 152.96 4.51 305.59 8.39 458.47.13 5.24 4.38 9.43 9.62 9.5 5.34.07 9.74-4.16 9.87-9.5 3.85-152.74 6.83-305.76 8.17-458.48.05-5.42-4.33-9.83-9.75-9.83ZM1147.99 1276.1a4.817 4.817 0 0 0-4.69-4.76c-230.67-6.49-460.01-11.64-690.46-10.65a4.82 4.82 0 0 0-4.8 4.99l.74 21.08a4.833 4.833 0 0 0 4.8 4.66c229.59.99 460.49-3.81 689.73-10.44a4.826 4.826 0 0 0 4.68-4.88ZM361.21 708.11c.02-41.81.29-83.88.73-126.02.04-3.32-2.62-6.03-5.93-6.08a6.017 6.017 0 0 0-6.09 6.08c.24 23.16.42 46.26.52 69.23 1.67 160.62-2.53 321.24-6.16 481.82-.08 3.37 2.64 6.15 6.01 6.15h11.28c3.38 0 6.09-2.78 6.01-6.15-3.28-141.66-7.13-283.33-6.38-425.03ZM756.08 367.49c.08 8.98 7.33 16.26 16.31 16.35 114.11 1.22 228.24 1.98 342.33 2.18 9.36.02 16.86-7.76 16.51-17.11l-.16-4.36c-.33-8.87-7.63-15.89-16.5-15.88-114.04.18-228.11.95-342.17 2.18-9.09.1-16.39 7.54-16.31 16.63Z"
        class="cls-5wed2" />
      <path
        d="M278.83 331.55c-5.69 0-11.06-1.05-16.12-3.14-5.06-2.1-9.14-5.29-12.25-9.59-3.11-4.3-4.66-9.67-4.66-16.12 0-5.59 1.08-9.94 3.24-13.05 2.16-3.11 4.82-5.32 7.98-6.61s6.16-1.93 9.01-1.93c-2.84 3.12-5 6.55-6.48 10.31-1.48 3.76-2.21 7.52-2.21 11.28 0 3.98.87 7.68 2.61 11.12 1.74 3.44 4.4 6.2 7.98 8.3 3.58 2.1 8.11 3.14 13.59 3.14 4.74 0 9.37-.89 13.9-2.66 4.53-1.77 8.24-4.41 11.14-7.9 2.9-3.49 4.34-7.82 4.34-12.97 0-4.62-1.16-8.59-3.48-11.93-2.32-3.33-5.29-6.29-8.93-8.86-3.63-2.58-7.5-5.05-11.61-7.41-4.11-2.36-7.98-4.86-11.61-7.49-3.63-2.63-6.61-5.67-8.93-9.11-2.32-3.44-3.48-7.57-3.48-12.41 0-4.51 1.05-9.24 3.16-14.18 2.11-4.94 5.14-9.61 9.08-14.02 3.95-4.4 8.69-7.98 14.22-10.72 5.53-2.74 11.72-4.11 18.56-4.11 6.21 0 10.53 1.53 12.96 4.59 2.42 3.06 3.63 6.9 3.63 11.52 0 3.87-.66 8.03-1.97 12.49-1.32 4.46-2.92 8.7-4.82 12.73-1.9 4.03-3.69 7.44-5.37 10.23-1.9-.43-3.24-1.26-4.03-2.5-.79-1.23-1.19-2.71-1.19-4.43 0-2.26.47-4.83 1.42-7.74.95-2.9 2.03-5.91 3.24-9.03 1.21-3.11 2.29-6.15 3.24-9.11.95-2.95 1.42-5.61 1.42-7.98 0-2.15-.63-3.84-1.9-5.08-1.26-1.23-3.58-1.85-6.95-1.85-4.95 0-9.53 1.18-13.75 3.55-4.21 2.36-7.9 5.4-11.06 9.11-3.16 3.71-5.61 7.6-7.35 11.68-1.74 4.08-2.61 7.79-2.61 11.12 0 3.98 1.13 7.39 3.4 10.23 2.26 2.85 5.19 5.43 8.77 7.74 3.58 2.31 7.4 4.62 11.46 6.93a95.65 95.65 0 0 1 11.46 7.66c3.58 2.8 6.5 6.1 8.77 9.91 2.26 3.81 3.4 8.46 3.4 13.94s-1.21 10.5-3.63 14.75-5.66 7.82-9.72 10.72c-4.06 2.9-8.51 5.1-13.35 6.61-4.85 1.5-9.69 2.26-14.54 2.26ZM334.92 325.11c-3.27 0-6.03-1.1-8.29-3.3-2.26-2.2-3.4-5.56-3.4-10.07 0-3.87.84-8.03 2.53-12.49 1.68-4.46 4-8.86 6.95-13.22 2.95-4.35 6.29-8.32 10.03-11.93 3.74-3.6 7.69-6.47 11.85-8.62 4.16-2.15 8.29-3.22 12.4-3.22s7.53 1.1 10.27 3.3c2.74 2.2 4.11 5.13 4.11 8.78 0 2.69-.71 4.51-2.13 5.48-1.42.97-3.29 1.45-5.61 1.45.21-.86.4-1.8.55-2.82.16-1.02.24-1.96.24-2.82 0-2.47-.58-4.59-1.74-6.37-1.16-1.77-3.16-2.66-6-2.66s-5.95 1.05-9.01 3.14c-3.06 2.1-6 4.89-8.85 8.38a73.164 73.164 0 0 0-7.58 11.36c-2.21 4.08-3.95 8.11-5.21 12.09-1.26 3.98-1.9 7.52-1.9 10.64 0 4.19 1.42 6.29 4.27 6.29 2.42 0 5.06-1.15 7.9-3.46 2.84-2.31 5.77-5.26 8.77-8.86 3-3.6 5.87-7.33 8.61-11.2 2.74-3.87 5.16-7.41 7.27-10.64.42-.64.68-.97.79-.97.63.11 1.45.32 2.45.64 1 .32 1.87.75 2.61 1.29.74.54 1.11 1.24 1.11 2.1 0 .97-.47 2.28-1.42 3.95-.95 1.67-2 3.57-3.16 5.72a83.25 83.25 0 0 0-3.16 6.53c-.95 2.2-1.42 4.27-1.42 6.2 0 1.61.42 3.2 1.26 4.75.84 1.56 2.21 2.34 4.11 2.34 2.84 0 6.58-2.12 11.22-6.37 4.63-4.24 9.32-10.61 14.06-19.1l1.58 1.61c-2.21 5.8-5.06 10.91-8.53 15.31-3.48 4.41-7.19 7.84-11.14 10.31s-7.82 3.71-11.61 3.71-6.77-1.18-8.61-3.55c-1.84-2.36-2.77-4.94-2.77-7.74 0-.64.05-1.37.16-2.18.1-.81.21-1.64.32-2.5-4.53 6.23-8.67 10.91-12.4 14.02-3.74 3.11-7.56 4.67-11.46 4.67Z"
        class="cls-5wed1" />
      <path
        d="M402.38 323.82c-3.27 0-5.53-1.64-6.79-4.92-1.26-3.28-1.9-7.55-1.9-12.81 0-.21.05-1.91.16-5.08.1-3.17.37-8.51.79-16.04.21-2.9.53-4.89.95-5.96.42-1.07 1.79-1.61 4.11-1.61 1.79 0 2.92.35 3.4 1.05.47.7.71 2.07.71 4.11 0 3.55-.24 7.71-.71 12.49s-.71 9.27-.71 13.46c0 3.12.26 5.4.79 6.85.53 1.45 1.47 2.18 2.84 2.18 1.9 0 4-1.1 6.32-3.3 2.32-2.2 4.69-5.1 7.11-8.7 2.42-3.6 4.71-7.44 6.87-11.52 2.16-4.08 4.08-8 5.77-11.76.21-7.31.97-12.17 2.29-14.58 1.32-2.42 2.97-3.63 4.98-3.63s3.45.73 4.34 2.18c.89 1.45 1.34 2.77 1.34 3.95 0 1.4-.45 2.85-1.34 4.35-.9 1.51-1.82 3.55-2.77 6.12-.95 2.58-1.42 6.29-1.42 11.12 0 1.72.16 3.55.47 5.48s1 3.55 2.05 4.83c1.05 1.29 2.69 1.93 4.9 1.93s4.34-.89 6.4-2.66c2.05-1.77 4.08-4.86 6.08-9.27l2.05 1.61c-2.32 5.37-4.87 8.97-7.66 10.8s-5.45 2.74-7.98 2.74c-3.48 0-6.37-1.29-8.69-3.87-2.32-2.58-3.85-6.5-4.58-11.76a108.41 108.41 0 0 1-8.93 15.23c-3.42 4.89-6.98 8.94-10.67 12.17-3.69 3.22-7.22 4.83-10.59 4.83Z"
        class="cls-5wed1" />
      <path
        d="M469.37 324.62c-6.43 0-11.25-1.8-14.46-5.4-3.21-3.6-4.82-8.03-4.82-13.3 0-4.83 1.19-9.94 3.55-15.31 2.37-5.37 5.53-10.42 9.48-15.15s8.29-8.57 13.03-11.52c4.74-2.95 9.43-4.43 14.06-4.43 2.42 0 4.66.64 6.71 1.93s3.08 3.92 3.08 7.9-1.19 7.92-3.55 11.52c-2.37 3.6-5.48 6.8-9.32 9.59-3.85 2.8-8.06 5.08-12.64 6.85-4.58 1.77-9.14 2.88-13.67 3.3-.21 1.08-.37 2.1-.47 3.06-.11.97-.16 1.88-.16 2.74 0 1.61.18 3.22.55 4.83.37 1.61 1.03 3.09 1.98 4.43.95 1.34 2.24 2.39 3.87 3.14s3.66 1.13 6.08 1.13c4.53 0 9.01-1.32 13.43-3.95s8.53-6.1 12.32-10.39c3.79-4.3 7-9.03 9.64-14.18l1.9 1.45c-2.84 6.45-6.45 12.03-10.82 16.76-4.37 4.73-9.11 8.41-14.22 11.04-5.11 2.63-10.3 3.95-15.56 3.95Zm-7.74-27.07c2.84-.97 6.06-2.39 9.64-4.27 3.58-1.88 7.03-4.11 10.35-6.69 3.32-2.58 6.06-5.42 8.22-8.54 2.16-3.11 3.24-6.39 3.24-9.83 0-1.18-.21-2.1-.63-2.74-.42-.64-1.32-.97-2.69-.97-2.53 0-5.21.99-8.06 2.98-2.84 1.99-5.58 4.59-8.22 7.82-2.63 3.22-5 6.77-7.11 10.64-2.11 3.87-3.69 7.74-4.74 11.6ZM437.85 520.97c-3.27 0-6.37-.46-9.32-1.37-2.95-.91-5.48-2.88-7.58-5.88 1.05-5.16 2.34-10.72 3.87-16.68 1.53-5.96 3.18-12.09 4.98-18.37 1.79-6.29 3.61-12.46 5.45-18.53a1200.7 1200.7 0 0 1 5.29-17c1.68-5.26 3.21-9.88 4.58-13.86 1.37-3.97 2.42-6.98 3.16-9.02.32-.86.84-2.12 1.58-3.79.74-1.66 1.63-3.36 2.69-5.08 1.05-1.72 2.26-3.2 3.63-4.43 1.37-1.23 2.84-1.85 4.42-1.85 1.47 0 2.95.54 4.42 1.61-3.27 7.74-6.56 16.28-9.88 25.62-3.32 9.35-6.51 18.99-9.56 28.93-3.06 9.94-5.85 19.64-8.37 29.09-2.53 9.46-4.64 18.05-6.32 25.79 1.47.21 2.71.38 3.71.48 1 .11 2.03.16 3.08.16 6.74 0 13.24-1.59 19.51-4.75 6.27-3.17 12.11-7.52 17.54-13.05 5.42-5.53 10.19-11.87 14.3-19.02 4.11-7.14 7.29-14.72 9.56-22.72 2.26-8 3.4-15.98 3.4-23.93 0-8.7-1.37-15.87-4.11-21.51-2.74-5.64-6.53-9.8-11.38-12.49-4.85-2.68-10.48-4.03-16.91-4.03-6.85 0-13.01 1.4-18.49 4.19-5.48 2.8-9.8 6.55-12.96 11.28-3.16 4.73-4.74 10.05-4.74 15.95 0 1.29.08 2.42.24 3.38.16.97.34 1.83.55 2.58-3.48 0-5.93-.89-7.35-2.66s-2.13-3.89-2.13-6.37c0-3.76 1.29-7.55 3.87-11.36 2.58-3.81 6.16-7.33 10.74-10.56s9.88-5.83 15.88-7.82c6-1.99 12.38-2.98 19.12-2.98 9.48 0 17.09 1.96 22.83 5.88 5.74 3.92 9.93 9.21 12.56 15.87 2.63 6.66 3.95 14.13 3.95 22.4 0 9.35-1.42 18.29-4.27 26.83-2.84 8.54-6.77 16.39-11.77 23.53-5 7.15-10.72 13.38-17.14 18.69-6.43 5.32-13.3 9.45-20.62 12.41-7.32 2.95-14.67 4.43-22.04 4.43ZM517.17 514.52c-3.27 0-6.03-1.1-8.29-3.3-2.26-2.2-3.4-5.56-3.4-10.07 0-3.87.84-8.03 2.53-12.49 1.68-4.46 4-8.86 6.95-13.22 2.95-4.35 6.29-8.32 10.03-11.93 3.74-3.6 7.69-6.47 11.85-8.62 4.16-2.15 8.29-3.22 12.4-3.22s7.53 1.1 10.27 3.3c2.74 2.2 4.11 5.13 4.11 8.78 0 2.69-.71 4.51-2.13 5.48-1.42.97-3.29 1.45-5.61 1.45.21-.86.4-1.8.55-2.82.16-1.02.24-1.96.24-2.82 0-2.47-.58-4.59-1.74-6.37-1.16-1.77-3.16-2.66-6-2.66s-5.95 1.05-9.01 3.14c-3.06 2.09-6 4.89-8.85 8.38a73.164 73.164 0 0 0-7.58 11.36c-2.21 4.08-3.95 8.11-5.21 12.09-1.26 3.98-1.9 7.52-1.9 10.64 0 4.19 1.42 6.29 4.27 6.29 2.42 0 5.06-1.15 7.9-3.46 2.84-2.31 5.77-5.26 8.77-8.86 3-3.6 5.87-7.33 8.61-11.2 2.74-3.87 5.16-7.41 7.27-10.64.42-.64.68-.97.79-.97.63.11 1.45.32 2.45.64 1 .32 1.87.75 2.61 1.29.74.54 1.11 1.24 1.11 2.1 0 .97-.47 2.28-1.42 3.95-.95 1.67-2 3.57-3.16 5.72a83.25 83.25 0 0 0-3.16 6.53c-.95 2.2-1.42 4.27-1.42 6.2 0 1.61.42 3.2 1.26 4.75.84 1.56 2.21 2.34 4.11 2.34 2.84 0 6.58-2.12 11.22-6.37 4.63-4.24 9.32-10.61 14.06-19.1l1.58 1.61c-2.21 5.8-5.06 10.91-8.53 15.31-3.48 4.41-7.19 7.84-11.14 10.31-3.95 2.47-7.82 3.71-11.61 3.71s-6.77-1.18-8.61-3.55c-1.84-2.36-2.77-4.94-2.77-7.74 0-.64.05-1.37.16-2.18.1-.81.21-1.64.32-2.5-4.53 6.23-8.67 10.91-12.4 14.02-3.74 3.11-7.56 4.67-11.46 4.67Z"
        class="cls-5wed1" />
      <path
        d="M587.79 514.36c-4.53 0-8.01-1.34-10.43-4.03-2.42-2.69-3.63-6.66-3.63-11.93 0-4.73.87-10.56 2.61-17.49 1.74-6.93 3.92-14.05 6.56-21.35-1.05-.21-2.05-.4-3-.56-.95-.16-1.84-.4-2.69-.73v-2.9c.84.11 1.84.22 3 .32 1.16.11 2.47.22 3.95.32 2.21-5.8 4.58-11.41 7.11-16.84 2.53-5.42 5.03-10.26 7.51-14.5 2.47-4.24 4.84-7.63 7.11-10.15 2.26-2.52 4.19-3.79 5.77-3.79.84 0 1.6.3 2.29.89.68.59 1.03 1.48 1.03 2.66 0 1.83-1.11 4.81-3.32 8.94-2.21 4.14-4.95 9.05-8.22 14.75-3.27 5.7-6.43 11.87-9.48 18.53h5.85c3.48 0 7.13-.05 10.98-.16 3.84-.11 7.71-.38 11.61-.81v2.9c-5.79.64-10.98 1.13-15.56 1.45-4.58.32-8.67.48-12.25.48h-2.37c-2.42 5.7-4.48 11.55-6.16 17.57-1.69 6.02-2.53 11.87-2.53 17.57 0 4.62.68 7.92 2.05 9.91 1.37 1.99 3.63 2.98 6.79 2.98 5.48 0 10.85-2.47 16.12-7.41 5.27-4.94 9.9-11.66 13.9-20.15l2.05 1.61c-2.53 6.02-5.72 11.44-9.56 16.28-3.85 4.83-8.08 8.65-12.72 11.44-4.64 2.79-9.43 4.19-14.38 4.19Z"
        class="cls-5wed1" />
      <path
        d="M632.35 514.04c-6.43 0-11.25-1.8-14.46-5.4-3.21-3.6-4.82-8.03-4.82-13.3 0-4.83 1.19-9.94 3.55-15.31 2.37-5.37 5.53-10.42 9.48-15.15s8.29-8.57 13.03-11.52c4.74-2.95 9.43-4.43 14.06-4.43 2.42 0 4.66.64 6.71 1.93s3.08 3.92 3.08 7.9-1.19 7.92-3.55 11.52c-2.37 3.6-5.48 6.8-9.32 9.59-3.85 2.8-8.06 5.08-12.64 6.85-4.58 1.77-9.14 2.88-13.67 3.3-.21 1.08-.37 2.1-.47 3.06-.11.97-.16 1.88-.16 2.74 0 1.61.18 3.22.55 4.83.37 1.61 1.03 3.09 1.98 4.43.95 1.34 2.24 2.39 3.87 3.14s3.66 1.13 6.08 1.13c4.53 0 9.01-1.32 13.43-3.95s8.53-6.1 12.32-10.39c3.79-4.3 7-9.03 9.64-14.18l1.9 1.45c-2.84 6.45-6.45 12.03-10.82 16.76-4.37 4.73-9.11 8.41-14.22 11.04-5.11 2.63-10.3 3.95-15.56 3.95Zm-7.74-27.07c2.84-.97 6.06-2.39 9.64-4.27 3.58-1.88 7.03-4.11 10.35-6.69 3.32-2.58 6.06-5.42 8.22-8.54 2.16-3.11 3.24-6.39 3.24-9.83 0-1.18-.21-2.1-.63-2.74-.42-.64-1.32-.97-2.69-.97-2.53 0-5.21.99-8.06 2.98-2.84 1.99-5.58 4.59-8.22 7.82-2.63 3.22-5 6.77-7.11 10.64-2.11 3.87-3.69 7.74-4.74 11.6ZM334.03 407.47c-2.84 0-5.02-.84-6.53-2.52-1.52-1.68-2.28-4.17-2.28-7.47 0-2.02.28-4.44.84-7.27.56-2.83 1.32-5.84 2.28-9.04.96-3.2 2-6.31 3.12-9.34-.66-.13-1.29-.35-1.88-.66-.59-.3-1.16-.56-1.68-.76v-1.82c.53.07 1.15.24 1.88.5.73.27 1.55.44 2.47.5 1.85-4.85 3.81-9.32 5.89-13.43 2.08-4.11 4.07-7.4 5.99-9.9 1.91-2.49 3.53-3.74 4.85-3.74.53 0 1.01.19 1.44.56.43.37.64.93.64 1.67 0 .67-.26 1.63-.79 2.88s-1.25 2.71-2.18 4.39c-.93 1.68-1.95 3.53-3.07 5.55-1.12 2.02-2.31 4.17-3.56 6.46s-2.44 4.68-3.56 7.17c1.65.27 3.25.5 4.8.71 1.55.2 3.15.3 4.8.3 1.78 0 3.7-.13 5.74-.4s4.39-.67 7.03-1.21c1.72-4.78 3.65-9.53 5.79-14.24 2.14-4.71 4.32-9 6.53-12.88 2.21-3.87 4.32-6.97 6.34-9.29 2.01-2.32 3.75-3.48 5.2-3.48 1.19 0 2.03.72 2.52 2.17.49 1.45.74 2.84.74 4.19 0 2.36-.58 5.13-1.73 8.33-1.16 3.2-2.72 6.5-4.7 9.9a58.42 58.42 0 0 1-6.88 9.49c-2.61 2.93-5.36 5.3-8.27 7.12-1.06 2.56-2 5.52-2.82 8.89a71.58 71.58 0 0 0-1.73 9.95c-.33 3.27-.36 5.98-.1 8.13 1.58-4.65 3.37-8.95 5.35-12.93 1.98-3.97 4.21-7.17 6.68-9.59 2.48-2.42 5.16-3.64 8.07-3.64 2.71 0 4.64.96 5.79 2.88 1.15 1.92 1.73 3.99 1.73 6.21 0 2.09-.35 4.11-1.04 6.06-.69 1.95-1.4 3.84-2.13 5.66-.73 1.82-1.09 3.57-1.09 5.25 0 1.35.28 2.32.84 2.93.56.61 1.27.91 2.13.91 1.52 0 3.22-.74 5.1-2.22 1.88-1.48 3.74-3.45 5.59-5.91 1.85-2.46 3.43-5.13 4.75-8.03l1.29 1.21c-1.39 3.3-3.07 6.28-5.05 8.94-1.98 2.66-4.16 4.76-6.53 6.31s-4.85 2.32-7.42 2.32c-2.24 0-3.94-.61-5.1-1.82-1.16-1.21-1.73-2.73-1.73-4.54 0-1.41.26-2.99.79-4.75.53-1.75 1.04-3.53 1.53-5.35.5-1.82.74-3.53.74-5.15 0-1.75-.36-2.99-1.09-3.74-.73-.74-1.62-1.11-2.67-1.11-1.65 0-3.14.67-4.46 2.02-1.32 1.35-2.52 3.08-3.61 5.2a83.488 83.488 0 0 0-3.07 6.72c-.96 2.36-1.87 4.59-2.72 6.72-.86 2.12-1.72 3.85-2.57 5.2-.86 1.35-1.75 2.02-2.67 2.02-.73 0-1.39-.37-1.98-1.11-.59-.74-1.07-1.78-1.44-3.13-.36-1.35-.58-2.91-.64-4.7-.07-1.78.03-3.69.3-5.71-2.51 4.51-5.59 8.21-9.26 11.11-3.66 2.89-7.51 4.34-11.53 4.34Zm2.87-3.74c3.43 0 6.8-1.55 10.1-4.65 3.3-3.1 6.2-7.3 8.71-12.62.46-2.22.94-4.34 1.44-6.36.49-2.02 1.17-4.27 2.03-6.77-2.24.54-4.37.91-6.39 1.11-2.01.2-3.94.3-5.79.3s-3.6-.12-5.25-.35c-1.65-.24-3.3-.49-4.95-.76a89.114 89.114 0 0 0-3.86 11.01c-1.06 3.77-1.58 7.44-1.58 11.01 0 2.9.43 4.97 1.29 6.21.86 1.24 2.28 1.87 4.26 1.87Zm30.19-35.75c2.31-1.88 4.47-4.16 6.48-6.82 2.01-2.66 3.81-5.39 5.4-8.18 1.58-2.79 2.82-5.39 3.71-7.78.89-2.39 1.34-4.22 1.34-5.5 0-.54-.13-.81-.4-.81-.46 0-1.35.74-2.67 2.22-1.32 1.48-2.82 3.53-4.5 6.16s-3.35 5.71-5 9.24c-1.65 3.53-3.1 7.36-4.36 11.46Z"
        class="cls-5wed1" />
      <path
        d="M409.17 407.27c-4.03 0-7.05-1.13-9.06-3.38-2.01-2.25-3.02-5.03-3.02-8.33 0-3.03.74-6.23 2.23-9.59 1.49-3.37 3.47-6.53 5.94-9.49s5.2-5.37 8.17-7.22c2.97-1.85 5.91-2.78 8.81-2.78 1.52 0 2.92.4 4.21 1.21 1.29.81 1.93 2.46 1.93 4.95s-.74 4.97-2.23 7.22c-1.48 2.26-3.43 4.26-5.84 6.01a34.734 34.734 0 0 1-7.92 4.29c-2.87 1.11-5.73 1.8-8.56 2.07-.13.67-.23 1.31-.3 1.92-.07.61-.1 1.18-.1 1.72 0 1.01.11 2.02.35 3.03.23 1.01.64 1.94 1.24 2.78.59.84 1.4 1.5 2.43 1.97 1.02.47 2.29.71 3.81.71 2.84 0 5.64-.83 8.42-2.47 2.77-1.65 5.35-3.82 7.72-6.51 2.38-2.69 4.39-5.66 6.04-8.89l1.19.91c-1.78 4.04-4.04 7.54-6.78 10.5s-5.71 5.27-8.91 6.92c-3.2 1.65-6.45 2.47-9.75 2.47Zm-4.85-16.96c1.78-.61 3.79-1.5 6.04-2.68 2.24-1.18 4.41-2.57 6.48-4.19 2.08-1.62 3.79-3.4 5.15-5.35 1.35-1.95 2.03-4 2.03-6.16 0-.74-.13-1.31-.4-1.72-.26-.4-.83-.61-1.68-.61-1.58 0-3.27.62-5.05 1.87-1.78 1.25-3.5 2.88-5.15 4.9a43.195 43.195 0 0 0-4.46 6.66c-1.32 2.42-2.31 4.85-2.97 7.27ZM1273.65 1269.7c1.36 0 2.61-.86 3.01-2.18 6.65-22.03 7.76-45.32 3.2-67.36-3.05-14.78-8.58-29.01-16.42-42.3-.86-1.46-2.77-1.96-4.28-1.13s-2.03 2.68-1.17 4.14c7.51 12.72 12.8 26.34 15.72 40.48 4.35 21.09 3.29 43.38-3.07 64.47-.48 1.61.47 3.29 2.13 3.76.29.08.59.12.88.12Z"
        class="cls-5wed1" />
      <path
        d="M1260.72 1159.36c.46-.2.98-.76 1.28-2.29 5.42-14.57 12.64-41.06 3.42-66.53-4.37-12.08-13.52-26.9-19.71-25.48-3.15.72-4.69 5.47-8.35 4.98-3.3-.44-4.27-4.61-8.26-5.01-2.24-.23-4.15.87-4.8 1.36-6 4.61 2.82 29.85 5.17 36.38 9.91 27.49 26.25 58.81 31.24 56.6Z"
        class="cls-5wed4" />
      <path
        d="M1261.32 1159.08c-.3.44-.92.85-2.35.78-14.26 2.09-39.52 3.11-59.76-13.03-9.6-7.65-20.43-21.05-17.63-27.24 1.43-3.16 6.02-3.6 6.5-7.59.44-3.61-3.01-5.67-2.37-10 .36-2.43 1.81-4.18 2.41-4.74 5.58-5.2 25.72 10.45 30.91 14.58 21.86 17.37 45.5 42.51 42.29 47.24Z"
        class="cls-5wed4" />
      <path
        d="M1261.59 1159.78c-1.13.94-3.06.16-4.17-.37-19.18-9.11-33.02-23.99-33.02-23.99-13.14-14.13-24.63-27.51-26.67-39.11-.42-2.39-1.26-7.19 1.14-10.63 1.93-2.75 4.89-2.2 6.86-5.33 2.09-3.34.37-6.27 2.81-10.08.8-1.32 2.03-2.83 3.84-3.49 8.64-3.15 21.54 16.28 28.38 26.58 0 0 13.87 20.89 21.4 60.57.33 1.76.78 4.75-.56 5.86Z"
        class="cls-5wed3" />
      <path
        d="M1267.04 1140.36c-.85-.5-2.44.81-4.05 2.13-2.34 1.93-2.18 2.87-3.68 3.58-2.46 1.17-3.78-.96-6.07.15-1.56.76-2.32 2.42-3.59 5.2-1.56 3.41-1.29 4.92-2.73 5.78-1.26.75-2.04-.06-3.72.82-1.05.55-2.68 1.87-2.53 2.96.35 2.46 9.76 2.38 15.78 2.32 2.81-.02 4.27-.17 5.65-1.27 1.6-1.27 2.13-3.06 3.31-8.54 2.56-11.87 2.1-12.84 1.62-13.13Z"
        class="cls-5wed1" />
      <circle cx="1173.46" cy="1107.19" r="5.81" class="cls-5wed3" />
      <circle cx="1190.01" cy="1066.43" r="5.81" class="cls-5wed3" />
      <circle cx="1237.9" cy="1054.81" r="5.81" class="cls-5wed3" />
      <path
        d="M1273.76 1268.62c-1.01 0-1.94-.69-2.23-1.76-4.93-17.74-5.75-36.51-2.38-54.26 2.26-11.91 6.36-23.37 12.18-34.07.64-1.17 2.06-1.58 3.17-.91s1.5 2.16.87 3.33a111.763 111.763 0 0 0-11.65 32.61c-3.23 16.98-2.44 34.94 2.28 51.94.36 1.29-.35 2.65-1.58 3.03-.22.07-.44.1-.65.1Z"
        class="cls-5wed1" />
      <path
        d="M1283.35 1179.74c-.34-.16-.73-.61-.95-1.85-4.02-11.74-9.37-33.08-2.54-53.59 3.24-9.73 10.03-21.67 14.61-20.52 2.34.58 3.48 4.4 6.19 4.01 2.45-.35 3.16-3.71 6.13-4.04 1.66-.18 3.08.7 3.56 1.1 4.45 3.71-2.09 24.04-3.84 29.3-7.35 22.15-19.46 47.37-23.16 45.59Z"
        class="cls-5wed4" />
      <path
        d="M1282.9 1179.51c.22.35.68.68 1.74.63 10.57 1.69 29.3 2.5 44.31-10.49 7.12-6.17 15.15-16.95 13.07-21.94-1.06-2.54-4.46-2.9-4.82-6.12-.32-2.9 2.23-4.57 1.76-8.06-.27-1.96-1.34-3.37-1.79-3.82-4.14-4.19-19.07 8.42-22.92 11.74-16.21 14-33.73 34.24-31.35 38.05Z"
        class="cls-5wed4" />
      <path
        d="M1282.7 1180.07c.84.76 2.27.13 3.09-.3 14.22-7.34 24.48-19.33 24.48-19.33 9.74-11.38 18.26-22.16 19.77-31.5.31-1.92.94-5.79-.85-8.56-1.43-2.22-3.63-1.77-5.08-4.29-1.55-2.69-.28-5.05-2.08-8.12-.59-1.06-1.5-2.28-2.85-2.81-6.41-2.54-15.97 13.11-21.04 21.41 0 0-10.28 16.83-15.87 48.79-.25 1.42-.58 3.82.42 4.72Z"
        class="cls-5wed3" />
      <path
        d="M1278.66 1164.43c.63-.4 1.81.65 3 1.71 1.74 1.55 1.62 2.31 2.72 2.89 1.82.94 2.81-.77 4.5.12 1.16.61 1.72 1.95 2.66 4.19 1.16 2.75.95 3.96 2.02 4.66.93.61 1.52-.05 2.76.66.78.44 1.99 1.51 1.87 2.38-.26 1.98-7.24 1.91-11.7 1.87-2.08-.02-3.17-.14-4.19-1.02-1.19-1.02-1.58-2.46-2.46-6.88-1.9-9.56-1.56-10.35-1.2-10.57Z"
        class="cls-5wed1" />
      <ellipse cx="1348.04" cy="1137.71" class="cls-5wed3" rx="4.31" ry="4.68" />
      <ellipse cx="1335.77" cy="1104.88" class="cls-5wed3" rx="4.31" ry="4.68" />
      <ellipse cx="1300.27" cy="1095.52" class="cls-5wed3" rx="4.31" ry="4.68" />
      <path
        d="M1282.4 1083.1c-.29-.06-.66-.33-1.05-1.22-5.18-8.13-13.12-23.27-11.71-40.02.67-7.94 3.61-18.2 7.29-18.17 1.87.01 3.43 2.69 5.41 1.9 1.78-.72 1.71-3.38 3.89-4.17 1.22-.44 2.45-.04 2.89.18 4.04 1.99 2.81 18.54 2.46 22.83-1.51 18.07-6.05 39.34-9.17 38.67Z"
        class="cls-5wed3" />
      <path
        d="M1282.02 1083.01c.23.23.64.39 1.43.16 8.29-.66 22.59-3.46 31.55-16.02 4.25-5.96 8.34-15.57 5.86-18.96-1.26-1.73-3.9-1.38-4.76-3.74-.77-2.14.85-3.86-.14-6.41-.56-1.43-1.63-2.3-2.05-2.56-3.89-2.41-12.87 9.84-15.17 13.06-9.69 13.53-19.23 32.03-16.73 34.47Z"
        class="cls-5wed3" />
      <path
        d="M1281.97 1083.47c.77.42 1.74-.32 2.28-.79 9.4-8.14 14.96-19.07 14.96-19.07 5.28-10.38 9.74-20.07 9.18-27.41-.12-1.51-.35-4.55-2.2-6.31-1.49-1.41-3.06-.67-4.62-2.32-1.66-1.75-1.13-3.76-3.06-5.76-.64-.69-1.55-1.45-2.67-1.61-5.3-.75-9.67 12.82-11.98 20.01 0 0-4.69 14.59-3.07 39.75.07 1.12.26 2.99 1.18 3.49Z"
        class="cls-5wed4" />
      <path
        d="M1276.06 1072.39c.4-.42 1.49.16 2.58.75 1.6.86 1.64 1.45 2.59 1.68 1.55.38 1.98-1.09 3.42-.73.99.25 1.66 1.16 2.78 2.68 1.38 1.87 1.44 2.82 2.38 3.15.82.29 1.14-.31 2.2 0 .67.19 1.78.78 1.85 1.46.16 1.54-5.12 2.77-8.49 3.55-1.57.36-2.42.47-3.35 0-1.09-.56-1.64-1.57-3.11-4.75-3.18-6.87-3.07-7.53-2.84-7.77Z"
        class="cls-5wed1" />
      <ellipse cx="1323.58" cy="1039.53" class="cls-5wed3" rx="3.35" ry="3.64"
        transform="rotate(-13.6 1323.197 1039.291)" />
      <ellipse cx="1308.32" cy="1016.97" class="cls-5wed3" rx="3.35" ry="3.64"
        transform="rotate(-13.6 1307.9 1016.714)" />
      <ellipse cx="1279.79" cy="1016.39" class="cls-5wed3" rx="3.35" ry="3.64"
        transform="rotate(-13.6 1279.387 1016.163)" />
      <path
        d="M201.24 295.02c-1.34-6.33-8.66-13.15-16.59-11.55-5.01 1.01-9.09 5.15-10.66 10.5-1.37-5.47-5.58-9.64-10.66-10.5-7.18-1.22-13.3 4.62-15.06 9.95-.17.52-.65 2.07-.61 4.17.11 6.5 4.97 11.24 8.21 14.49 4.63 4.65 10.5 10.83 18.13 19.47 4.07-3.85 7.59-7.49 10.61-10.78 4.83-5.27 3.45-4.31 7.52-8.69 5.59-6.02 8.41-8.08 9.17-12.56.39-2.32.03-4.13-.05-4.5ZM772.2 476.52c-1.34-6.33-8.66-13.15-16.59-11.55-5.01 1.01-9.09 5.15-10.66 10.5-1.37-5.47-5.58-9.64-10.66-10.5-7.18-1.22-13.3 4.62-15.06 9.95-.17.52-.65 2.07-.61 4.17.11 6.5 4.97 11.24 8.21 14.49 4.63 4.65 10.5 10.83 18.13 19.47 4.07-3.85 7.59-7.49 10.61-10.78 4.83-5.27 3.45-4.31 7.52-8.69 5.59-6.02 8.41-8.08 9.17-12.56.39-2.32.03-4.13-.05-4.5ZM379.94 1238.02c-4.42-7.48-16.67-13.02-26.08-7.58-5.95 3.44-9.36 10.46-9.06 17.95-4.09-6.38-11.24-9.87-18.08-8.79-9.67 1.53-14.94 11.59-14.9 19.13 0 .74.07 2.91 1.02 5.57 2.93 8.22 11.15 12.17 16.67 14.92 7.88 3.93 18.02 9.27 31.44 17 3.52-6.65 6.45-12.8 8.87-18.28 3.88-8.78 2.54-6.97 5.84-14.3 4.53-10.07 7.23-13.9 6.27-19.92-.5-3.12-1.73-5.27-1.99-5.71Z"
        class="cls-5wed4" />
      <path
        d="M411.68 1194.66c.5-5.5-3.77-12.92-10.65-13.6-4.35-.43-8.72 1.92-11.35 5.9.26-4.82-2.14-9.27-6.07-11.26-5.56-2.8-12.02.43-14.81 4.34-.27.38-1.05 1.53-1.55 3.26-1.54 5.34 1.23 10.43 3.06 13.9 2.61 4.96 5.86 11.49 9.92 20.46 4.29-2.13 8.09-4.21 11.37-6.14 5.27-3.09 3.9-2.65 8.33-5.21 6.08-3.52 8.9-4.49 10.64-7.96.9-1.8 1.06-3.36 1.09-3.69Z"
        class="cls-5wed3" />
      <path
        d="M1283.7 357.64c-6.35-10.76-23.98-18.73-37.51-10.9-8.55 4.95-13.46 15.05-13.03 25.81-5.89-9.18-16.17-14.19-26-12.64-13.9 2.2-21.49 16.67-21.44 27.52 0 1.06.09 4.19 1.46 8.02 4.22 11.83 16.04 17.51 23.98 21.46 11.34 5.65 25.92 13.34 45.22 24.45 5.06-9.57 9.27-18.41 12.76-26.29 5.58-12.63 3.66-10.02 8.4-20.56 6.51-14.48 10.4-20 9.02-28.66-.72-4.49-2.49-7.58-2.87-8.21Z"
        class="cls-5wed4" />
      <path
        d="M1329.35 295.28c.72-7.92-5.42-18.58-15.32-19.57-6.26-.62-12.54 2.77-16.32 8.49.37-6.93-3.07-13.34-8.73-16.19-8-4.03-17.29.62-21.3 6.24-.39.55-1.51 2.2-2.23 4.68-2.22 7.67 1.77 15 4.41 19.99 3.76 7.13 8.43 16.52 14.27 29.43a262.28 262.28 0 0 0 16.36-8.84c7.58-4.45 5.61-3.81 11.98-7.5 8.75-5.06 12.8-6.46 15.31-11.45 1.3-2.59 1.53-4.84 1.57-5.31Z"
        class="cls-5wed3" />
      <g transform="translate(470, 530)scale(2.3)" fill="none">
        <svg width="300" height="300">
          <style>.background-color{ fill: #fff; }.corners-square-color-0-0{ fill: #ff8000;
            }.corners-dot-color-0-0{ fill: #ff8080; }.corners-square-color-1-0{ fill: #ff8000;
            }.corners-dot-color-1-0{ fill: #ff8080; }.corners-square-color-0-1{ fill: #ff8000;
            }.corners-dot-color-0-1{ fill: #ff8080; }</style>
          <defs>
            <clipPath id="clip-path-dot-color">
              <circle cx="10" cy="90" r="5" transform="rotate(0,10,90)" />
              <circle cx="10" cy="120" r="3.3333333333333335" transform="rotate(0,10,120)" />
              <circle cx="10" cy="140" r="3.3333333333333335" transform="rotate(0,10,140)" />
              <circle cx="10" cy="150" r="5" transform="rotate(0,10,150)" />
              <circle cx="10" cy="180" r="3.3333333333333335" transform="rotate(0,10,180)" />
              <circle cx="10" cy="190" r="3.3333333333333335" transform="rotate(0,10,190)" />
              <circle cx="10" cy="210" r="3.3333333333333335" transform="rotate(0,10,210)" />
              <circle cx="20" cy="100" r="3.3333333333333335" transform="rotate(0,20,100)" />
              <circle cx="20" cy="120" r="3.3333333333333335" transform="rotate(0,20,120)" />
              <circle cx="20" cy="200" r="3.3333333333333335" transform="rotate(0,20,200)" />
              <circle cx="30" cy="100" r="3.3333333333333335" transform="rotate(0,30,100)" />
              <circle cx="30" cy="130" r="3.3333333333333335" transform="rotate(0,30,130)" />
              <circle cx="30" cy="160" r="5" transform="rotate(0,30,160)" />
              <circle cx="30" cy="170" r="3.3333333333333335" transform="rotate(0,30,170)" />
              <circle cx="30" cy="200" r="5" transform="rotate(0,30,200)" />
              <circle cx="30" cy="210" r="3.3333333333333335" transform="rotate(0,30,210)" />
              <circle cx="40" cy="110" r="5" transform="rotate(0,40,110)" />
              <circle cx="40" cy="120" r="3.3333333333333335" transform="rotate(0,40,120)" />
              <circle cx="40" cy="130" r="3.3333333333333335" transform="rotate(0,40,130)" />
              <circle cx="40" cy="170" r="3.3333333333333335" transform="rotate(0,40,170)" />
              <circle cx="40" cy="180" r="3.3333333333333335" transform="rotate(0,40,180)" />
              <circle cx="40" cy="200" r="3.3333333333333335" transform="rotate(0,40,200)" />
              <circle cx="50" cy="90" r="3.3333333333333335" transform="rotate(0,50,90)" />
              <circle cx="50" cy="100" r="5" transform="rotate(0,50,100)" />
              <circle cx="50" cy="110" r="3.3333333333333335" transform="rotate(0,50,110)" />
              <circle cx="50" cy="140" r="3.3333333333333335" transform="rotate(0,50,140)" />
              <circle cx="50" cy="150" r="3.3333333333333335" transform="rotate(0,50,150)" />
              <circle cx="50" cy="160" r="3.3333333333333335" transform="rotate(0,50,160)" />
              <circle cx="50" cy="170" r="5" transform="rotate(0,50,170)" />
              <circle cx="50" cy="200" r="3.3333333333333335" transform="rotate(0,50,200)" />
              <circle cx="60" cy="90" r="3.3333333333333335" transform="rotate(0,60,90)" />
              <circle cx="60" cy="100" r="3.3333333333333335" transform="rotate(0,60,100)" />
              <circle cx="60" cy="110" r="3.3333333333333335" transform="rotate(0,60,110)" />
              <circle cx="60" cy="130" r="5" transform="rotate(0,60,130)" />
              <circle cx="60" cy="160" r="3.3333333333333335" transform="rotate(0,60,160)" />
              <circle cx="60" cy="170" r="5" transform="rotate(0,60,170)" />
              <circle cx="60" cy="190" r="3.3333333333333335" transform="rotate(0,60,190)" />
              <circle cx="60" cy="210" r="3.3333333333333335" transform="rotate(0,60,210)" />
              <circle cx="70" cy="90" r="3.3333333333333335" transform="rotate(0,70,90)" />
              <circle cx="70" cy="110" r="3.3333333333333335" transform="rotate(0,70,110)" />
              <circle cx="70" cy="130" r="3.3333333333333335" transform="rotate(0,70,130)" />
              <circle cx="70" cy="150" r="3.3333333333333335" transform="rotate(0,70,150)" />
              <circle cx="70" cy="170" r="3.3333333333333335" transform="rotate(0,70,170)" />
              <circle cx="70" cy="190" r="5" transform="rotate(0,70,190)" />
              <circle cx="70" cy="210" r="3.3333333333333335" transform="rotate(0,70,210)" />
              <circle cx="80" cy="100" r="3.3333333333333335" transform="rotate(0,80,100)" />
              <circle cx="80" cy="110" r="3.3333333333333335" transform="rotate(0,80,110)" />
              <circle cx="80" cy="120" r="3.3333333333333335" transform="rotate(0,80,120)" />
              <circle cx="80" cy="140" r="5" transform="rotate(0,80,140)" />
              <circle cx="80" cy="170" r="3.3333333333333335" transform="rotate(0,80,170)" />
              <circle cx="80" cy="210" r="3.3333333333333335" transform="rotate(0,80,210)" />
              <circle cx="90" cy="20" r="3.3333333333333335" transform="rotate(0,90,20)" />
              <circle cx="90" cy="30" r="3.3333333333333335" transform="rotate(0,90,30)" />
              <circle cx="90" cy="40" r="3.3333333333333335" transform="rotate(0,90,40)" />
              <circle cx="90" cy="50" r="3.3333333333333335" transform="rotate(0,90,50)" />
              <circle cx="90" cy="60" r="3.3333333333333335" transform="rotate(0,90,60)" />
              <circle cx="90" cy="70" r="3.3333333333333335" transform="rotate(0,90,70)" />
              <circle cx="90" cy="80" r="5" transform="rotate(0,90,80)" />
              <circle cx="90" cy="140" r="3.3333333333333335" transform="rotate(0,90,140)" />
              <circle cx="90" cy="160" r="5" transform="rotate(0,90,160)" />
              <circle cx="90" cy="190" r="3.3333333333333335" transform="rotate(0,90,190)" />
              <circle cx="90" cy="240" r="3.3333333333333335" transform="rotate(0,90,240)" />
              <circle cx="90" cy="250" r="5" transform="rotate(0,90,250)" />
              <circle cx="90" cy="290" r="5" transform="rotate(0,90,290)" />
              <circle cx="100" cy="30" r="5" transform="rotate(0,100,30)" />
              <circle cx="100" cy="40" r="5" transform="rotate(0,100,40)" />
              <circle cx="100" cy="50" r="3.3333333333333335" transform="rotate(0,100,50)" />
              <circle cx="100" cy="110" r="5" transform="rotate(0,100,110)" />
              <circle cx="100" cy="160" r="3.3333333333333335" transform="rotate(0,100,160)" />
              <circle cx="100" cy="170" r="3.3333333333333335" transform="rotate(0,100,170)" />
              <circle cx="100" cy="230" r="3.3333333333333335" transform="rotate(0,100,230)" />
              <circle cx="100" cy="240" r="5" transform="rotate(0,100,240)" />
              <circle cx="100" cy="250" r="3.3333333333333335" transform="rotate(0,100,250)" />
              <circle cx="100" cy="260" r="5" transform="rotate(0,100,260)" />
              <circle cx="100" cy="270" r="3.3333333333333335" transform="rotate(0,100,270)" />
              <circle cx="100" cy="290" r="3.3333333333333335" transform="rotate(0,100,290)" />
              <circle cx="110" cy="20" r="5" transform="rotate(0,110,20)" />
              <circle cx="110" cy="30" r="5" transform="rotate(0,110,30)" />
              <circle cx="110" cy="40" r="3.3333333333333335" transform="rotate(0,110,40)" />
              <circle cx="110" cy="60" r="5" transform="rotate(0,110,60)" />
              <circle cx="110" cy="70" r="3.3333333333333335" transform="rotate(0,110,70)" />
              <circle cx="110" cy="100" r="3.3333333333333335" transform="rotate(0,110,100)" />
              <circle cx="110" cy="110" r="5" transform="rotate(0,110,110)" />
              <circle cx="110" cy="120" r="3.3333333333333335" transform="rotate(0,110,120)" />
              <circle cx="110" cy="130" r="3.3333333333333335" transform="rotate(0,110,130)" />
              <circle cx="110" cy="140" r="3.3333333333333335" transform="rotate(0,110,140)" />
              <circle cx="110" cy="150" r="5" transform="rotate(0,110,150)" />
              <circle cx="110" cy="190" r="3.3333333333333335" transform="rotate(0,110,190)" />
              <circle cx="110" cy="210" r="5" transform="rotate(0,110,210)" />
              <circle cx="110" cy="220" r="3.3333333333333335" transform="rotate(0,110,220)" />
              <circle cx="110" cy="230" r="3.3333333333333335" transform="rotate(0,110,230)" />
              <circle cx="110" cy="240" r="3.3333333333333335" transform="rotate(0,110,240)" />
              <circle cx="110" cy="260" r="5" transform="rotate(0,110,260)" />
              <circle cx="110" cy="270" r="3.3333333333333335" transform="rotate(0,110,270)" />
              <circle cx="120" cy="10" r="3.3333333333333335" transform="rotate(0,120,10)" />
              <circle cx="120" cy="20" r="3.3333333333333335" transform="rotate(0,120,20)" />
              <circle cx="120" cy="30" r="3.3333333333333335" transform="rotate(0,120,30)" />
              <circle cx="120" cy="100" r="5" transform="rotate(0,120,100)" />
              <circle cx="120" cy="110" r="3.3333333333333335" transform="rotate(0,120,110)" />
              <circle cx="120" cy="140" r="3.3333333333333335" transform="rotate(0,120,140)" />
              <circle cx="120" cy="170" r="3.3333333333333335" transform="rotate(0,120,170)" />
              <circle cx="120" cy="220" r="3.3333333333333335" transform="rotate(0,120,220)" />
              <circle cx="120" cy="230" r="5" transform="rotate(0,120,230)" />
              <circle cx="120" cy="240" r="3.3333333333333335" transform="rotate(0,120,240)" />
              <circle cx="120" cy="260" r="3.3333333333333335" transform="rotate(0,120,260)" />
              <circle cx="120" cy="280" r="5" transform="rotate(0,120,280)" />
              <circle cx="130" cy="20" r="3.3333333333333335" transform="rotate(0,130,20)" />
              <circle cx="130" cy="30" r="5" transform="rotate(0,130,30)" />
              <circle cx="130" cy="40" r="3.3333333333333335" transform="rotate(0,130,40)" />
              <circle cx="130" cy="50" r="3.3333333333333335" transform="rotate(0,130,50)" />
              <circle cx="130" cy="70" r="3.3333333333333335" transform="rotate(0,130,70)" />
              <circle cx="130" cy="80" r="5" transform="rotate(0,130,80)" />
              <circle cx="130" cy="100" r="3.3333333333333335" transform="rotate(0,130,100)" />
              <circle cx="130" cy="120" r="5" transform="rotate(0,130,120)" />
              <circle cx="130" cy="170" r="3.3333333333333335" transform="rotate(0,130,170)" />
              <circle cx="130" cy="180" r="5" transform="rotate(0,130,180)" />
              <circle cx="130" cy="220" r="3.3333333333333335" transform="rotate(0,130,220)" />
              <circle cx="130" cy="240" r="3.3333333333333335" transform="rotate(0,130,240)" />
              <circle cx="130" cy="260" r="3.3333333333333335" transform="rotate(0,130,260)" />
              <circle cx="130" cy="270" r="3.3333333333333335" transform="rotate(0,130,270)" />
              <circle cx="130" cy="280" r="3.3333333333333335" transform="rotate(0,130,280)" />
              <circle cx="130" cy="290" r="3.3333333333333335" transform="rotate(0,130,290)" />
              <circle cx="140" cy="10" r="3.3333333333333335" transform="rotate(0,140,10)" />
              <circle cx="140" cy="30" r="3.3333333333333335" transform="rotate(0,140,30)" />
              <circle cx="140" cy="40" r="3.3333333333333335" transform="rotate(0,140,40)" />
              <circle cx="140" cy="60" r="3.3333333333333335" transform="rotate(0,140,60)" />
              <circle cx="140" cy="140" r="3.3333333333333335" transform="rotate(0,140,140)" />
              <circle cx="140" cy="150" r="3.3333333333333335" transform="rotate(0,140,150)" />
              <circle cx="140" cy="160" r="3.3333333333333335" transform="rotate(0,140,160)" />
              <circle cx="140" cy="170" r="3.3333333333333335" transform="rotate(0,140,170)" />
              <circle cx="140" cy="180" r="5" transform="rotate(0,140,180)" />
              <circle cx="140" cy="200" r="3.3333333333333335" transform="rotate(0,140,200)" />
              <circle cx="140" cy="210" r="3.3333333333333335" transform="rotate(0,140,210)" />
              <circle cx="140" cy="220" r="5" transform="rotate(0,140,220)" />
              <circle cx="140" cy="230" r="3.3333333333333335" transform="rotate(0,140,230)" />
              <circle cx="140" cy="250" r="5" transform="rotate(0,140,250)" />
              <circle cx="140" cy="260" r="3.3333333333333335" transform="rotate(0,140,260)" />
              <circle cx="140" cy="280" r="3.3333333333333335" transform="rotate(0,140,280)" />
              <circle cx="140" cy="290" r="3.3333333333333335" transform="rotate(0,140,290)" />
              <circle cx="150" cy="30" r="3.3333333333333335" transform="rotate(0,150,30)" />
              <circle cx="150" cy="50" r="5" transform="rotate(0,150,50)" />
              <circle cx="150" cy="70" r="3.3333333333333335" transform="rotate(0,150,70)" />
              <circle cx="150" cy="80" r="5" transform="rotate(0,150,80)" />
              <circle cx="150" cy="90" r="3.3333333333333335" transform="rotate(0,150,90)" />
              <circle cx="150" cy="100" r="3.3333333333333335" transform="rotate(0,150,100)" />
              <circle cx="150" cy="120" r="3.3333333333333335" transform="rotate(0,150,120)" />
              <circle cx="150" cy="130" r="3.3333333333333335" transform="rotate(0,150,130)" />
              <circle cx="150" cy="160" r="5" transform="rotate(0,150,160)" />
              <circle cx="150" cy="180" r="3.3333333333333335" transform="rotate(0,150,180)" />
              <circle cx="150" cy="210" r="3.3333333333333335" transform="rotate(0,150,210)" />
              <circle cx="150" cy="220" r="5" transform="rotate(0,150,220)" />
              <circle cx="150" cy="230" r="3.3333333333333335" transform="rotate(0,150,230)" />
              <circle cx="150" cy="240" r="5" transform="rotate(0,150,240)" />
              <circle cx="150" cy="280" r="3.3333333333333335" transform="rotate(0,150,280)" />
              <circle cx="160" cy="60" r="5" transform="rotate(0,160,60)" />
              <circle cx="160" cy="80" r="3.3333333333333335" transform="rotate(0,160,80)" />
              <circle cx="160" cy="90" r="3.3333333333333335" transform="rotate(0,160,90)" />
              <circle cx="160" cy="110" r="3.3333333333333335" transform="rotate(0,160,110)" />
              <circle cx="160" cy="130" r="3.3333333333333335" transform="rotate(0,160,130)" />
              <circle cx="160" cy="140" r="3.3333333333333335" transform="rotate(0,160,140)" />
              <circle cx="160" cy="180" r="3.3333333333333335" transform="rotate(0,160,180)" />
              <circle cx="160" cy="190" r="3.3333333333333335" transform="rotate(0,160,190)" />
              <circle cx="160" cy="210" r="3.3333333333333335" transform="rotate(0,160,210)" />
              <circle cx="160" cy="220" r="5" transform="rotate(0,160,220)" />
              <circle cx="160" cy="230" r="3.3333333333333335" transform="rotate(0,160,230)" />
              <circle cx="160" cy="250" r="3.3333333333333335" transform="rotate(0,160,250)" />
              <circle cx="160" cy="260" r="3.3333333333333335" transform="rotate(0,160,260)" />
              <circle cx="170" cy="10" r="3.3333333333333335" transform="rotate(0,170,10)" />
              <circle cx="170" cy="20" r="3.3333333333333335" transform="rotate(0,170,20)" />
              <circle cx="170" cy="40" r="3.3333333333333335" transform="rotate(0,170,40)" />
              <circle cx="170" cy="50" r="5" transform="rotate(0,170,50)" />
              <circle cx="170" cy="60" r="3.3333333333333335" transform="rotate(0,170,60)" />
              <circle cx="170" cy="70" r="5" transform="rotate(0,170,70)" />
              <circle cx="170" cy="80" r="5" transform="rotate(0,170,80)" />
              <circle cx="170" cy="100" r="3.3333333333333335" transform="rotate(0,170,100)" />
              <circle cx="170" cy="120" r="3.3333333333333335" transform="rotate(0,170,120)" />
              <circle cx="170" cy="140" r="3.3333333333333335" transform="rotate(0,170,140)" />
              <circle cx="170" cy="170" r="3.3333333333333335" transform="rotate(0,170,170)" />
              <circle cx="170" cy="200" r="3.3333333333333335" transform="rotate(0,170,200)" />
              <circle cx="170" cy="210" r="5" transform="rotate(0,170,210)" />
              <circle cx="170" cy="220" r="5" transform="rotate(0,170,220)" />
              <circle cx="170" cy="250" r="5" transform="rotate(0,170,250)" />
              <circle cx="170" cy="260" r="3.3333333333333335" transform="rotate(0,170,260)" />
              <circle cx="170" cy="270" r="5" transform="rotate(0,170,270)" />
              <circle cx="170" cy="290" r="5" transform="rotate(0,170,290)" />
              <circle cx="180" cy="10" r="3.3333333333333335" transform="rotate(0,180,10)" />
              <circle cx="180" cy="20" r="3.3333333333333335" transform="rotate(0,180,20)" />
              <circle cx="180" cy="40" r="3.3333333333333335" transform="rotate(0,180,40)" />
              <circle cx="180" cy="50" r="3.3333333333333335" transform="rotate(0,180,50)" />
              <circle cx="180" cy="80" r="3.3333333333333335" transform="rotate(0,180,80)" />
              <circle cx="180" cy="100" r="3.3333333333333335" transform="rotate(0,180,100)" />
              <circle cx="180" cy="150" r="3.3333333333333335" transform="rotate(0,180,150)" />
              <circle cx="180" cy="160" r="3.3333333333333335" transform="rotate(0,180,160)" />
              <circle cx="180" cy="190" r="3.3333333333333335" transform="rotate(0,180,190)" />
              <circle cx="180" cy="200" r="5" transform="rotate(0,180,200)" />
              <circle cx="180" cy="210" r="3.3333333333333335" transform="rotate(0,180,210)" />
              <circle cx="180" cy="230" r="5" transform="rotate(0,180,230)" />
              <circle cx="180" cy="240" r="3.3333333333333335" transform="rotate(0,180,240)" />
              <circle cx="180" cy="250" r="3.3333333333333335" transform="rotate(0,180,250)" />
              <circle cx="180" cy="270" r="3.3333333333333335" transform="rotate(0,180,270)" />
              <circle cx="180" cy="280" r="3.3333333333333335" transform="rotate(0,180,280)" />
              <circle cx="180" cy="290" r="3.3333333333333335" transform="rotate(0,180,290)" />
              <circle cx="190" cy="10" r="3.3333333333333335" transform="rotate(0,190,10)" />
              <circle cx="190" cy="30" r="3.3333333333333335" transform="rotate(0,190,30)" />
              <circle cx="190" cy="70" r="3.3333333333333335" transform="rotate(0,190,70)" />
              <circle cx="190" cy="90" r="5" transform="rotate(0,190,90)" />
              <circle cx="190" cy="110" r="5" transform="rotate(0,190,110)" />
              <circle cx="190" cy="140" r="3.3333333333333335" transform="rotate(0,190,140)" />
              <circle cx="190" cy="160" r="3.3333333333333335" transform="rotate(0,190,160)" />
              <circle cx="190" cy="170" r="5" transform="rotate(0,190,170)" />
              <circle cx="190" cy="180" r="3.3333333333333335" transform="rotate(0,190,180)" />
              <circle cx="190" cy="190" r="3.3333333333333335" transform="rotate(0,190,190)" />
              <circle cx="190" cy="230" r="5" transform="rotate(0,190,230)" />
              <circle cx="190" cy="240" r="3.3333333333333335" transform="rotate(0,190,240)" />
              <circle cx="190" cy="250" r="3.3333333333333335" transform="rotate(0,190,250)" />
              <circle cx="190" cy="270" r="3.3333333333333335" transform="rotate(0,190,270)" />
              <circle cx="200" cy="10" r="3.3333333333333335" transform="rotate(0,200,10)" />
              <circle cx="200" cy="60" r="3.3333333333333335" transform="rotate(0,200,60)" />
              <circle cx="200" cy="80" r="5" transform="rotate(0,200,80)" />
              <circle cx="200" cy="110" r="3.3333333333333335" transform="rotate(0,200,110)" />
              <circle cx="200" cy="140" r="3.3333333333333335" transform="rotate(0,200,140)" />
              <circle cx="200" cy="160" r="5" transform="rotate(0,200,160)" />
              <circle cx="200" cy="190" r="5" transform="rotate(0,200,190)" />
              <circle cx="200" cy="200" r="5" transform="rotate(0,200,200)" />
              <circle cx="200" cy="230" r="5" transform="rotate(0,200,230)" />
              <circle cx="200" cy="240" r="3.3333333333333335" transform="rotate(0,200,240)" />
              <circle cx="200" cy="250" r="3.3333333333333335" transform="rotate(0,200,250)" />
              <circle cx="200" cy="260" r="5" transform="rotate(0,200,260)" />
              <circle cx="200" cy="280" r="3.3333333333333335" transform="rotate(0,200,280)" />
              <circle cx="200" cy="290" r="3.3333333333333335" transform="rotate(0,200,290)" />
              <circle cx="210" cy="10" r="3.3333333333333335" transform="rotate(0,210,10)" />
              <circle cx="210" cy="30" r="5" transform="rotate(0,210,30)" />
              <circle cx="210" cy="40" r="5" transform="rotate(0,210,40)" />
              <circle cx="210" cy="50" r="3.3333333333333335" transform="rotate(0,210,50)" />
              <circle cx="210" cy="60" r="3.3333333333333335" transform="rotate(0,210,60)" />
              <circle cx="210" cy="70" r="3.3333333333333335" transform="rotate(0,210,70)" />
              <circle cx="210" cy="80" r="3.3333333333333335" transform="rotate(0,210,80)" />
              <circle cx="210" cy="90" r="3.3333333333333335" transform="rotate(0,210,90)" />
              <circle cx="210" cy="100" r="3.3333333333333335" transform="rotate(0,210,100)" />
              <circle cx="210" cy="110" r="3.3333333333333335" transform="rotate(0,210,110)" />
              <circle cx="210" cy="130" r="3.3333333333333335" transform="rotate(0,210,130)" />
              <circle cx="210" cy="150" r="3.3333333333333335" transform="rotate(0,210,150)" />
              <circle cx="210" cy="160" r="5" transform="rotate(0,210,160)" />
              <circle cx="210" cy="180" r="3.3333333333333335" transform="rotate(0,210,180)" />
              <circle cx="210" cy="190" r="5" transform="rotate(0,210,190)" />
              <circle cx="210" cy="200" r="5" transform="rotate(0,210,200)" />
              <circle cx="210" cy="210" r="3.3333333333333335" transform="rotate(0,210,210)" />
              <circle cx="210" cy="220" r="5" transform="rotate(0,210,220)" />
              <circle cx="210" cy="230" r="3.3333333333333335" transform="rotate(0,210,230)" />
              <circle cx="210" cy="240" r="3.3333333333333335" transform="rotate(0,210,240)" />
              <circle cx="210" cy="250" r="5" transform="rotate(0,210,250)" />
              <circle cx="210" cy="270" r="3.3333333333333335" transform="rotate(0,210,270)" />
              <circle cx="210" cy="280" r="5" transform="rotate(0,210,280)" />
              <circle cx="210" cy="290" r="5" transform="rotate(0,210,290)" />
              <circle cx="220" cy="90" r="3.3333333333333335" transform="rotate(0,220,90)" />
              <circle cx="220" cy="110" r="5" transform="rotate(0,220,110)" />
              <circle cx="220" cy="130" r="3.3333333333333335" transform="rotate(0,220,130)" />
              <circle cx="220" cy="170" r="3.3333333333333335" transform="rotate(0,220,170)" />
              <circle cx="220" cy="190" r="3.3333333333333335" transform="rotate(0,220,190)" />
              <circle cx="220" cy="210" r="3.3333333333333335" transform="rotate(0,220,210)" />
              <circle cx="220" cy="250" r="3.3333333333333335" transform="rotate(0,220,250)" />
              <circle cx="220" cy="260" r="3.3333333333333335" transform="rotate(0,220,260)" />
              <circle cx="220" cy="280" r="5" transform="rotate(0,220,280)" />
              <circle cx="220" cy="290" r="3.3333333333333335" transform="rotate(0,220,290)" />
              <circle cx="230" cy="90" r="3.3333333333333335" transform="rotate(0,230,90)" />
              <circle cx="230" cy="100" r="5" transform="rotate(0,230,100)" />
              <circle cx="230" cy="110" r="3.3333333333333335" transform="rotate(0,230,110)" />
              <circle cx="230" cy="140" r="3.3333333333333335" transform="rotate(0,230,140)" />
              <circle cx="230" cy="150" r="3.3333333333333335" transform="rotate(0,230,150)" />
              <circle cx="230" cy="160" r="3.3333333333333335" transform="rotate(0,230,160)" />
              <circle cx="230" cy="170" r="3.3333333333333335" transform="rotate(0,230,170)" />
              <circle cx="230" cy="190" r="3.3333333333333335" transform="rotate(0,230,190)" />
              <circle cx="230" cy="200" r="5" transform="rotate(0,230,200)" />
              <circle cx="230" cy="210" r="3.3333333333333335" transform="rotate(0,230,210)" />
              <circle cx="230" cy="230" r="3.3333333333333335" transform="rotate(0,230,230)" />
              <circle cx="230" cy="250" r="3.3333333333333335" transform="rotate(0,230,250)" />
              <circle cx="240" cy="90" r="3.3333333333333335" transform="rotate(0,240,90)" />
              <circle cx="240" cy="110" r="3.3333333333333335" transform="rotate(0,240,110)" />
              <circle cx="240" cy="140" r="5" transform="rotate(0,240,140)" />
              <circle cx="240" cy="200" r="3.3333333333333335" transform="rotate(0,240,200)" />
              <circle cx="240" cy="210" r="3.3333333333333335" transform="rotate(0,240,210)" />
              <circle cx="240" cy="250" r="5" transform="rotate(0,240,250)" />
              <circle cx="240" cy="260" r="3.3333333333333335" transform="rotate(0,240,260)" />
              <circle cx="240" cy="290" r="3.3333333333333335" transform="rotate(0,240,290)" />
              <circle cx="250" cy="90" r="3.3333333333333335" transform="rotate(0,250,90)" />
              <circle cx="250" cy="100" r="3.3333333333333335" transform="rotate(0,250,100)" />
              <circle cx="250" cy="110" r="3.3333333333333335" transform="rotate(0,250,110)" />
              <circle cx="250" cy="120" r="3.3333333333333335" transform="rotate(0,250,120)" />
              <circle cx="250" cy="130" r="3.3333333333333335" transform="rotate(0,250,130)" />
              <circle cx="250" cy="160" r="3.3333333333333335" transform="rotate(0,250,160)" />
              <circle cx="250" cy="190" r="5" transform="rotate(0,250,190)" />
              <circle cx="250" cy="210" r="3.3333333333333335" transform="rotate(0,250,210)" />
              <circle cx="250" cy="220" r="3.3333333333333335" transform="rotate(0,250,220)" />
              <circle cx="250" cy="230" r="3.3333333333333335" transform="rotate(0,250,230)" />
              <circle cx="250" cy="240" r="3.3333333333333335" transform="rotate(0,250,240)" />
              <circle cx="250" cy="250" r="5" transform="rotate(0,250,250)" />
              <circle cx="250" cy="260" r="5" transform="rotate(0,250,260)" />
              <circle cx="250" cy="270" r="3.3333333333333335" transform="rotate(0,250,270)" />
              <circle cx="250" cy="290" r="3.3333333333333335" transform="rotate(0,250,290)" />
              <circle cx="260" cy="90" r="3.3333333333333335" transform="rotate(0,260,90)" />
              <circle cx="260" cy="100" r="3.3333333333333335" transform="rotate(0,260,100)" />
              <circle cx="260" cy="130" r="5" transform="rotate(0,260,130)" />
              <circle cx="260" cy="150" r="3.3333333333333335" transform="rotate(0,260,150)" />
              <circle cx="260" cy="160" r="3.3333333333333335" transform="rotate(0,260,160)" />
              <circle cx="260" cy="170" r="3.3333333333333335" transform="rotate(0,260,170)" />
              <circle cx="260" cy="180" r="5" transform="rotate(0,260,180)" />
              <circle cx="260" cy="200" r="3.3333333333333335" transform="rotate(0,260,200)" />
              <circle cx="260" cy="210" r="5" transform="rotate(0,260,210)" />
              <circle cx="260" cy="220" r="3.3333333333333335" transform="rotate(0,260,220)" />
              <circle cx="260" cy="240" r="3.3333333333333335" transform="rotate(0,260,240)" />
              <circle cx="270" cy="90" r="3.3333333333333335" transform="rotate(0,270,90)" />
              <circle cx="270" cy="120" r="3.3333333333333335" transform="rotate(0,270,120)" />
              <circle cx="270" cy="130" r="5" transform="rotate(0,270,130)" />
              <circle cx="270" cy="140" r="3.3333333333333335" transform="rotate(0,270,140)" />
              <circle cx="270" cy="150" r="3.3333333333333335" transform="rotate(0,270,150)" />
              <circle cx="270" cy="180" r="3.3333333333333335" transform="rotate(0,270,180)" />
              <circle cx="270" cy="200" r="3.3333333333333335" transform="rotate(0,270,200)" />
              <circle cx="270" cy="210" r="3.3333333333333335" transform="rotate(0,270,210)" />
              <circle cx="270" cy="220" r="5" transform="rotate(0,270,220)" />
              <circle cx="270" cy="230" r="3.3333333333333335" transform="rotate(0,270,230)" />
              <circle cx="270" cy="240" r="3.3333333333333335" transform="rotate(0,270,240)" />
              <circle cx="270" cy="250" r="3.3333333333333335" transform="rotate(0,270,250)" />
              <circle cx="270" cy="260" r="3.3333333333333335" transform="rotate(0,270,260)" />
              <circle cx="270" cy="270" r="3.3333333333333335" transform="rotate(0,270,270)" />
              <circle cx="270" cy="280" r="3.3333333333333335" transform="rotate(0,270,280)" />
              <circle cx="280" cy="90" r="3.3333333333333335" transform="rotate(0,280,90)" />
              <circle cx="280" cy="100" r="3.3333333333333335" transform="rotate(0,280,100)" />
              <circle cx="280" cy="110" r="3.3333333333333335" transform="rotate(0,280,110)" />
              <circle cx="280" cy="150" r="3.3333333333333335" transform="rotate(0,280,150)" />
              <circle cx="280" cy="170" r="3.3333333333333335" transform="rotate(0,280,170)" />
              <circle cx="280" cy="190" r="3.3333333333333335" transform="rotate(0,280,190)" />
              <circle cx="280" cy="200" r="5" transform="rotate(0,280,200)" />
              <circle cx="280" cy="210" r="5" transform="rotate(0,280,210)" />
              <circle cx="280" cy="220" r="5" transform="rotate(0,280,220)" />
              <circle cx="280" cy="230" r="3.3333333333333335" transform="rotate(0,280,230)" />
              <circle cx="280" cy="250" r="5" transform="rotate(0,280,250)" />
              <circle cx="280" cy="260" r="5" transform="rotate(0,280,260)" />
              <circle cx="280" cy="280" r="5" transform="rotate(0,280,280)" />
              <circle cx="290" cy="110" r="5" transform="rotate(0,290,110)" />
              <circle cx="290" cy="120" r="3.3333333333333335" transform="rotate(0,290,120)" />
              <circle cx="290" cy="150" r="3.3333333333333335" transform="rotate(0,290,150)" />
              <circle cx="290" cy="180" r="3.3333333333333335" transform="rotate(0,290,180)" />
              <circle cx="290" cy="200" r="3.3333333333333335" transform="rotate(0,290,200)" />
              <circle cx="290" cy="220" r="3.3333333333333335" transform="rotate(0,290,220)" />
              <circle cx="290" cy="250" r="3.3333333333333335" transform="rotate(0,290,250)" />
              <circle cx="290" cy="260" r="3.3333333333333335" transform="rotate(0,290,260)" />
            </clipPath>
            <linearGradient id="dot-color" gradientUnits="userSpaceOnUse" x1="5" y1="150" x2="295"
              y2="150">
              <stop offset="0%" stop-color="#F48F8F" />
              <stop offset="100%" stop-color="#ff8080" />
            </linearGradient>
          </defs>
          <rect x="5" y="5" height="290" width="290" clip-path="url('#clip-path-dot-color')"
            fill="url('#dot-color')" />
          <g class="corners-square-color-0-0">
            <path clip-rule="evenodd" d="M 5 5v 70h 70v -70zM 15 15h 50v 50h -50z"
              transform="rotate(0,40,40)" />
          </g>
          <g class="corners-dot-color-0-0">
            <rect x="25" y="25" width="30" height="30" transform="rotate(0,40,40)" />
          </g>
          <g class="corners-square-color-1-0">
            <path clip-rule="evenodd" d="M 225 5v 70h 70v -70zM 235 15h 50v 50h -50z"
              transform="rotate(90,260,40)" />
          </g>
          <g class="corners-dot-color-1-0">
            <rect x="245" y="25" width="30" height="30" transform="rotate(90,260,40)" />
          </g>
          <g class="corners-square-color-0-1">
            <path clip-rule="evenodd" d="M 5 225v 70h 70v -70zM 15 235h 50v 50h -50z"
              transform="rotate(-90,40,260)" />
          </g>
          <g class="corners-dot-color-0-1">
            <rect x="25" y="245" width="30" height="30" transform="rotate(-90,40,260)" />
          </g>
        </svg>
      </g>
    </g>
  </svg>
</svg>